<svg id="Layer_1" data-name="Layer 1" xmlns="http://www.w3.org/2000/svg" viewBox="0 0 18 18"><defs><style>.cls-1{fill:#010101;}</style></defs><title>phone</title><g id="Page-1"><g id="Icons-Communication"><g id="phone"><path id="Shape" class="cls-1" d="M3.6001,7.7998a15.56857,15.56857,0,0,0,6.6001,6.60059l2.2002-2.20019a0.796,0.796,0,0,1,1-.2002A10.44776,10.44776,0,0,0,17,12.59961a0.94519,0.94519,0,0,1,1,1V17a0.94519,0.94519,0,0,1-1,1A16.98555,16.98555,0,0,1,0,1,0.94467,0.94467,0,0,1,1,0H4.5a0.94467,0.94467,0,0,1,1,1,11.32861,11.32861,0,0,0,.6001,3.6001,1.23093,1.23093,0,0,1-.2002,1L3.6001,7.7998h0Z"/></g></g></g></svg>