<svg id="Слой_1" data-name="Слой 1" xmlns="http://www.w3.org/2000/svg" viewBox="0 0 456.90529 77.4677"><defs><style>.cls-1{fill:none;}</style></defs><title>sedona</title><path class="cls-1" d="M9.2914,51.9161L0,66.7825a41.65392,41.65392,0,0,0,11.9627,7.6074,38.286,38.286,0,0,0,13.705,3.0778h1.2776q1.625,0,3.3681-.1742,1.7421-.1743,3.4843-0.5227,2.09055-.46545,4.1812-1.1033a30.1293,30.1293,0,0,0,4.065-1.568,21.86181,21.86181,0,0,0,8.5365-8.3623A29.1942,29.1942,0,0,0,54.4713,54.239c0-.3865.0181-0.813,0.058-1.2776q0.05715-.69675.0581-1.3937V50.987a22.7187,22.7187,0,0,0-3.3682-11.4402,18.02193,18.02193,0,0,0-9.756-7.7235q-1.3938-.46275-3.4843-0.9872-2.09055-.5226-4.2973-1.1034-2.67315-.8112-5.1103-1.6841a12.64224,12.64224,0,0,1-3.7167-1.9163,9.88473,9.88473,0,0,1-1.2775-1.2776,4.07512,4.07512,0,0,1-.813-1.5099,1.761,1.761,0,0,1-.2904-0.6968,4.107,4.107,0,0,1-.058-0.6969,5.80723,5.80723,0,0,1,2.3228-4.3554,9.36378,9.36378,0,0,1,4.9942-2.3809h0.9291a16.64669,16.64669,0,0,1,7.5494,1.7421,44.703,44.703,0,0,1,6.6201,4.0651L51.2192,6.7363a45.329,45.329,0,0,0-7.6074-3.8327A40.99544,40.99544,0,0,0,35.3076.5807q-1.6278-.2313-3.194-0.4065A27.88807,27.88807,0,0,0,29.0358,0,29.23914,29.23914,0,0,0,16.7827,2.6713a21.60731,21.60731,0,0,0-9.5819,8.8269,17.5333,17.5333,0,0,0-2.0905,4.1812,25.4816,25.4816,0,0,0-1.1615,4.6457,10.16822,10.16822,0,0,0-.2903,1.8583c-0.04.6206-.0581,1.2395-0.0581,1.8583v0.8711a3.55849,3.55849,0,0,0,.1161.8711,19.002,19.002,0,0,0,.4065,2.6712q0.2886,1.2795.6388,2.4391a15.67044,15.67044,0,0,0,6.8525,8.8849,36.99849,36.99849,0,0,0,10.6852,4.4716,0.52937,0.52937,0,0,1,.2323.058,0.49384,0.49384,0,0,0,.2323.0581q1.0452,0.23415,2.2067.5227a25.34678,25.34678,0,0,1,2.439.7549,21.57418,21.57418,0,0,1,5.8653,3.3101,6.505,6.505,0,0,1,2.7293,5.2845,7.94583,7.94583,0,0,1-.1161,1.2776,13.9898,13.9898,0,0,1-.3484,1.5098c-0.0781.1561-.1561,0.3104-0.2323,0.4646-0.0781.1561-.1561,0.3103-0.2323,0.4646a7.88538,7.88538,0,0,1-2.6132,2.5552,10.27582,10.27582,0,0,1-3.5424,1.3937,7.30043,7.30043,0,0,1-.9872.1742,8.6953,8.6953,0,0,1-.9872.0581,0.91721,0.91721,0,0,1-.2904-0.0581,0.98247,0.98247,0,0,0-.2904-0.0581,0.91438,0.91438,0,0,1-.2903-0.0581,0.98183,0.98183,0,0,0-.2904-0.058,15.94281,15.94281,0,0,1-9.0592-3.194,49.201,49.201,0,0,1-7.0847-6.4459q-0.11715-.11445-0.1743-0.1742-0.05985-.0573-0.1742-0.1743h0Z"/><path class="cls-1" d="M69.1052,75.8417h45.4121V59.2332H88.9658V46.6897h24.0417V30.8942H88.9658V18.0022h25.5515V1.8583H69.1052V75.8417h0Z"/><path class="cls-1" d="M180.7178,68.8731a32.04421,32.04421,0,0,0,10.3368-12.5435,41.19755,41.19755,0,0,0,3.9489-15.9117V37.5143a8.60061,8.60061,0,0,0-.1161-1.3937,40.3581,40.3581,0,0,0-4.065-15.3309A30.48961,30.48961,0,0,0,180.7178,8.8269,30.40106,30.40106,0,0,0,169.51,3.7166a73.7724,73.7724,0,0,0-12.3693-1.7422q-1.7421-.1143-3.5423-0.1161H128.4533V75.8417h23.8675q1.79925,0,3.6585-.1161a80.63631,80.63631,0,0,0,12.8919-1.7422,33.58775,33.58775,0,0,0,11.8466-5.1103h0Zm-32.404-9.6399V18.4668h7.5494a31.72209,31.72209,0,0,1,6.0975.813,13.36326,13.36326,0,0,1,5.4007,2.6713,16.48435,16.48435,0,0,1,5.1103,6.5621,23.69316,23.69316,0,0,1,2.0906,8.5366,3.8902,3.8902,0,0,1,.1161.9291v0.9292a26.00751,26.00751,0,0,1-1.8002,9.5818,15.81126,15.81126,0,0,1-5.5168,7.259,17.02177,17.02177,0,0,1-5.2265,2.439,30.55531,30.55531,0,0,1-5.9233,1.0453q-1.16235.117-2.439,0.1742-1.2795.05985-2.439,0.0581a4.10717,4.10717,0,0,1-.6969-0.0581,5.08344,5.08344,0,0,0-.813-0.0581,5.1676,5.1676,0,0,1-.7549-0.0581,5.46828,5.46828,0,0,0-.755-0.058h0Z"/><path class="cls-1" d="M209.98549,20.6735a37.82674,37.82674,0,0,0-2.5552,5.8653,45.911,45.911,0,0,0-1.626,6.0975,23.50142,23.50142,0,0,0-.4646,3.1359q-0.117,1.5108-.1161,3.0197a38.26039,38.26039,0,0,0,5.5749,19.6863,37.80345,37.80345,0,0,0,15.3309,14.5761,37.41407,37.41407,0,0,0,7.4913,2.9035,45.59287,45.59287,0,0,0,7.8397,1.3938c0.5408,0,1.0634.0181,1.5679,0.058q0.754,0.05715,1.5679.0581a41.52233,41.52233,0,0,0,21.7189-6.2137,37.04018,37.04018,0,0,0,15.2148-17.4796,42.0426,42.0426,0,0,0,1.5679-4.7038,29.51412,29.51412,0,0,0,.8711-4.8199,16.22052,16.22052,0,0,0,.2903-2.381q0.05715-1.2195.0581-2.3809a40.28048,40.28048,0,0,0-4.5296-18.5249,36.27253,36.27253,0,0,0-12.7758-14.2276A40.02171,40.02171,0,0,0,258.94,2.7874a42.46385,42.46385,0,0,0-8.5366-2.0905q-1.39365-.11445-2.8455-0.2323-1.45365-.11445-2.8455-0.1162a40.725,40.725,0,0,0-19.8605,5.2265,36.756,36.756,0,0,0-14.8664,15.0986h0Zm52.8453,26.5969a20.49585,20.49585,0,0,1-7.1428,9.8141,18.17244,18.17244,0,0,1-11.0918,3.6585c-0.4645,0-.9291-0.0181-1.3937-0.058q-0.69675-.05715-1.3937-0.1742a14.63692,14.63692,0,0,1-1.5099-.2904c-0.4645-.1161-0.9291-0.2504-1.3937-0.4065a16.07956,16.07956,0,0,1-9.4657-7.259,24.45064,24.45064,0,0,1-3.7747-11.6724,3.55787,3.55787,0,0,1-.1161-0.8711v-0.871c0-.5408.0182-1.0635,0.0581-1.568q0.05715-.75405.1742-1.5679,0.2313-1.15965.4646-2.2648a19.367,19.367,0,0,1,.5807-2.1487,1.85931,1.85931,0,0,1,.0581-0.4646,2.23361,2.23361,0,0,1,.1742-0.4645,19.33059,19.33059,0,0,1,6.9686-9.8722,17.89468,17.89468,0,0,1,10.9175-3.7166,15.66357,15.66357,0,0,1,2.3229.1742q1.1595,0.17415,2.3228.4065,1.15965,0.34845,2.3229.813,1.15965,0.46545,2.3228,1.0453a17.81877,17.81877,0,0,1,6.7364,7.2009,27.44382,27.44382,0,0,1,3.0197,9.6399c0,0.4646.0182,0.9292,0.0581,1.3937q0.05715,0.6969.058,1.3938c0,0.4645-.0199.969-0.058,1.5098q-0.05985.8139-.1742,1.626a19.75393,19.75393,0,0,1-.4065,2.5552q-0.2913,1.27935-.6388,2.439h0Z"/><path class="cls-1" d="M298.48559,75.8417h19.5121V39.3726q0-3.71565-.3485-7.4332-0.3483-3.71565-.9291-7.317,0.57975,1.27935,1.2195,2.7294,0.637,1.45365,1.3356,2.9616,0.92835,2.0907,1.9745,4.007a20.4395,20.4395,0,0,0,2.2067,3.3101l28.1067,38.2112h19.396V1.8583h-19.396V38.2112q0,2.556.1162,4.9942,0.1143,2.439.3484,4.7619,0.1143,1.27935.2904,2.439,0.17415,1.16235.2903,2.439-0.69675-1.3938-1.3937-2.9036-0.6969-1.5081-1.3937-3.0197-0.93105-1.85655-1.9164-3.6586-0.98805-1.79925-2.0325-3.4262L317.99769,1.8583h-19.5121V75.8417h0Z"/><path class="cls-1" d="M380.599,75.8417h19.9767l3.8327-13.3565h28.5713l3.7166,13.3565h20.209L431.23759,1.8583h-25.2032L380.599,75.8417h0Zm35.6561-52.1484q0.46275-1.6251.871-3.2521,0.4056-1.6251.755-3.3681a0.951,0.951,0,0,0,.1161-0.4065,0.93061,0.93061,0,0,1,.1162-0.4065,13.23345,13.23345,0,0,1,.2903-1.3357q0.1743-.6369.2904-1.2195,0.1143,0.5826.2323,1.2195a9.38608,9.38608,0,0,0,.3484,1.3357q0.34845,1.85925.8711,3.7746,0.5226,1.9164,1.1033,3.6586l7.5494,24.5062h-20.0929l7.5494-24.5062h0Z"/></svg>