<svg id="Layer_1" data-name="Layer 1" xmlns="http://www.w3.org/2000/svg" viewBox="0 0 459.75389 350.07742"><defs><style>.cls-1{fill:#766458;}.cls-2{fill:#81b3d3;}.cls-3{fill:#fff;}</style></defs><title>header-text</title><path class="cls-1" d="M165.4209,70.001l-0.2031.229a6.44657,6.44657,0,0,1-4.5205,2.2168l2.8218-4.8648c1.813-3.1391.144-6.104-2.6792-6.104-2.3028,0-4.0879.9199-5.815,3.916l-1.4677,2.562-1.2271,2.0982-0.1543.1767c-2.1587,2.5059-4.2617,4.4913-5.5859,4.4913-0.6617,0-1.0367-.4615-0.3457-1.6412l6.4218-11.2011h2.4458l0.8643-1.44H153.499l2.8218-4.893h-2.9936l-2.8223,4.895h-2.707l-0.8638,1.4399h2.7349l-6.0191,10.4234c-1.2671,2.2168-.374,4.2617,2.044,4.2617,1.7392,0,3.6621-1.3091,5.5122-3.084-0.0059,3.8159,5.2969,4.562,8.539.4629h0.6612a9.08307,9.08307,0,0,0,6.1338-2.90671A2.57016,2.57016,0,0,0,165.4209,70.001Zm-6.3921.20309h-0.145a1.76879,1.76879,0,0,0-1.7558,1.78511,1.96552,1.96552,0,0,0,.289,1.0088l-0.0288.0572c-1.4111,2.41889-4.8384,1.958-3.0532-1.1514l2.2739-3.9438,1.44-2.4468c2.102-3.5694,4.9799-2.1592,3.166.9497Z"/><path class="cls-1" d="M206.876,70.001l-0.2012.229c-2.1596,2.5058-4.9238,4.4912-7.0249,4.4912-1.8437,0-2.938-1.1514-1.5547-3.5694l0.2867-.52c1.9301,0.8072,5.5581.4322,7.8042-3.4551l0.4321-.749c1.6118-2.76361.0581-4.8369-2.3901-4.8369a6.33447,6.33447,0,0,0-5.6148,3.4551l-2.9062,4.9839-0.1729.1992c-2.1592,2.5039-4.2612,4.4897-5.5859,4.4897-0.6612,0-1.0362-.4609-0.3462-1.6406l4.3188-7.57129c1.2949-2.2739.0591-3.916-1.6118-3.916-1.2959,0-2.6792.7202-4.1753,2.2744l4.7793-8.3203H189.919l-8.354,14.49219-0.168.19091c-2.1587,2.5059-4.2607,4.4907-5.5859,4.4907-0.6622,0-1.0372-.4609-0.3453-1.6406l6.4205-11.20119h2.4467l0.8643-1.4399h-2.4761l2.8218-4.8931h-2.9941l-2.8218,4.8951H177.021l-0.8637,1.4399h2.7348l-6.019,10.4228c-1.2671,2.2173-.3731,4.2623,2.0449,4.2623a6.704,6.704,0,0,0,3.8213-1.627l-0.771,1.3379h3.022l4.5498-7.916c4.6059-5.7891,6.6499-5.0391,5.354-2.82181l-3.8882,6.76711c-1.2666,2.2178-.3731,4.2627,2.0454,4.2627,1.7808,0,3.7568-1.375,5.646-3.2168,0.145,1.8638,1.6528,3.2168,4.0547,3.2168,3.396,0,6.7661-2.6489,9.2422-5.5288A2.5499,2.5499,0,0,0,206.876,70.001Zm-5.7012-4.2041c1.729-2.9649,4.7813-2.4771,2.9961.63419l-0.4331.74911c-1.438,2.4467-3.3677,2.3906-4.4907,1.9868Z"/><path class="cls-1" d="M316.04589,70.001l-0.2011.229a18.79794,18.79794,0,0,1-3.6006,3.2539c0.9502-2.8511.749-7.2281,2.5927-11.0572l-2.2461-1.2089c-1.2382,1.6992-3.9433,5.6152-6.6503,8.7822v0.001l-0.2002.229c-2.1582,2.5058-4.2608,4.4912-5.587,4.4912-0.6611,0-1.0351-.4614-0.3437-1.6411l6.3916-11.20119h-2.9941l-5.3262,9.3003c-2.2744,2.0718-4.0303,3.2246-4.6065,2.9648-0.748-.31491,0-1.438.375-2.0722l5.8448-10.1919H296.499l-4.6953,8.124-0.1972.227a6.45159,6.45159,0,0,1-4.5205,2.2173l2.8213-4.8652c1.8125-3.1392.1464-6.104-2.6778-6.104-2.3047,0-4.0898.9199-5.8154,3.916l-1.4697,2.562-1.2266,2.0972-0.1543.1777c-2.1582,2.5059-4.9238,4.49119-7.0244,4.49119-1.8428,0-2.9385-1.15129-1.5557-3.56929l0.2891-.52c1.9287,0.8071,5.5576.4321,7.8027-3.4546l0.4336-.749c1.6104-2.7642.0567-4.8374-2.3916-4.8374a6.33507,6.33507,0,0,0-5.6152,3.455l-2.9033,4.9844-0.1739.1987c-2.4775,2.8511-4.6064,4.691-6.9697,5.6993l6.709-11.459h-1.7568a3.16692,3.16692,0,0,0-3.1387-2.8794,6.65285,6.65285,0,0,0-5.125,3.4551l-2.8711,4.957L254.2647,70l-0.2012.23c-2.1582,2.5039-4.2617,4.4897-5.5859,4.4897-0.6621,0-1.0352-.4609-0.3457-1.6406l2.9941-5.24119a3.05982,3.05982,0,0,0-.4326-4.0601l-1.6709-2.0171a1.16727,1.16727,0,0,1,.1738-1.7275l-1.5547-1.6992c-1.6992,1.5249-1.8437,3.22509-.7773,4.6069l0.2597,0.34619c-1.3242,1.87211-3.1093,4.40381-5.0683,6.709L242.0576,70l-0.1992.229a6.46072,6.46072,0,0,1-4.5215,2.2168l2.8204-4.86571c1.8144-3.13819.1445-6.104-2.6778-6.104-2.3027,0-4.0879.92181-5.8144,3.916l-1.4703,2.562-1.2275,2.10111-0.1523.1748c-2.4771,2.851-4.607,4.6909-6.9688,5.6992l6.709-11.459h-1.7563a3.16614,3.16614,0,0,0-3.1387-2.8794,6.65345,6.65345,0,0,0-5.125,3.4551l-4.2031,7.2558c-1.2681,2.2173-.375,4.2623,2.0429,4.2623a5.70818,5.70818,0,0,0,2.8521-1.0079l-0.835,1.4097c-4.0312,1.2383-6.5649,2.8789-6.5649,5.125,0,2.8804,4.4048,3.4844,6.5649-.2007l2.2739-3.9453a18.2437,18.2437,0,0,0,7.1802-4.4809c-0.021,3.832,5.2935,4.5849,8.5396.479h0.6611a9.07571,9.07571,0,0,0,6.1338-2.90781h0c1.4375-1.66989,2.5615-3.16789,4.9502-6.41989l0.4023,0.4898a1.46862,1.46862,0,0,1,.1739,1.6977l-3.168,5.5c-1.2686,2.2183-.375,4.2632,2.0449,4.2632,1.5186,0,3.1768-.998,4.8018-2.4311a2.30741,2.30741,0,0,0,2.5976,2.4311,5.70957,5.70957,0,0,0,2.8516-1.0088l-0.836,1.4087c-4.0312,1.2383-6.5625,2.8794-6.5625,5.125,0,2.8804,4.4043,3.4834,6.5625-.2007l2.2735-3.9443a18.44373,18.44373,0,0,0,7.3154-4.6167c0.1338,1.875,1.6455,3.2358,4.0576,3.2358,2.4375,0,4.8584-1.3667,6.9463-3.2007-0.1162,3.92,5.2666,4.7208,8.541.5796h0.6621a8.39372,8.39372,0,0,0,3.3301-.8559c-0.8056,2.081-.0635,3.478,1.6494,3.478,1.6416,0,3.4825-1.498,4.9219-2.8789a2.33524,2.33524,0,0,0,2.5625,2.8789c2.4766,0,5.3262-2.6479,7.8047-5.5278l-0.002-.001c1.6973-1.959,3.1954-4.05909,4.2618-5.46919-1.1817,3.1079-.5489,8.6943-3.3975,8.6943a1.66729,1.66729,0,0,1-1.4092-1.0942l-1.873.979a3.26535,3.26535,0,0,0,3.2822,2.4199,7.45507,7.45507,0,0,0,.834-0.0601c0.0293,0,.0596-0.0278.0889-0.0278,3.0507-.4019,6.0732-2.8198,8.3193-5.4409A1.88856,1.88856,0,0,0,316.04589,70.001Zm-42.9824-4.2041c1.7275-2.9649,4.7773-2.4771,2.9922.63419l-0.4317.74911c-1.4394,2.4467-3.3691,2.3906-4.4921,1.9868ZM215.8863,81.4028c-0.6333,1.1231-1.6412.9512-1.6412,0.145,0-.7768.7207-1.6699,2.9942-2.562Zm1.3828-6.6797c-0.6621,0-1.0371-.4609-0.3462-1.64109l4.1762-7.2851c1.6109-2.793,4.8091-2.07281,3.3399.63419l-2.273,3.97371C220.3501,73.313,218.5362,74.72309,217.2691,74.72309Zm18.3969-4.519h-0.1455a1.76911,1.76911,0,0,0-1.7558,1.78511,1.9825,1.9825,0,0,0,.2871,1.0088l-0.0274.0572c-1.4101,2.41889-4.8374,1.958-3.0527-1.1514l2.2734-3.9438,1.4395-2.4468c2.1035-3.5694,4.9795-2.1592,3.168.9497Zm18.8272,11.1987c-0.6348,1.1231-1.6426.9512-1.6426,0.145,0-.7768.7207-1.6699,2.9942-2.562Zm1.3808-6.6797c-0.6621,0-1.0351-.4609-0.3457-1.64109l4.1758-7.2851c1.6114-2.793,4.8086-2.07281,3.3399.63419l-2.2735,3.97371C258.9571,73.313,257.1397,74.72309,255.874,74.72309Zm29.5401-4.519h-0.1455a1.7692,1.7692,0,0,0-1.7559,1.78511,1.98352,1.98352,0,0,0,.2871,1.0088l-0.0273.0572c-1.4102,2.41889-4.8379,1.958-3.0527-1.1514l2.2734-3.9438,1.4394-2.4468c2.1026-3.5694,4.9795-2.1592,3.168.9497Z"/><rect class="cls-1" x="101.4209" y="66.8232" width="28.918" height="1.9566"/><rect class="cls-1" x="328.42089" y="66.8232" width="28.918" height="1.9566"/><path class="cls-2" d="M163.1822,0h7.707l-1.209,44.918H155.1553l-1.9751-18.545-1.9751,18.545H136.6162L135.4702,0h7.6451l0.6367,37.1518h0.8281L149.3579,0h7.5811l4.9062,37.1518h0.7647Z"/><path class="cls-2" d="M195.0332,37.1518V44.918h-20.896V0h20.896V7.7002H181.7823V18.5439H192.357v7.70019H181.7823V37.1518h13.2509Z"/><path class="cls-2" d="M216.3721,37.1518V44.918H198.0889V0h7.646V37.1518h10.6372Z"/><path class="cls-2" d="M232.6162,28.3608l7.708-1.7968V40.168a4.80473,4.80473,0,0,1-4.7138,4.749H224.1411a4.762,4.762,0,0,1-4.7129-4.749V4.749A4.72089,4.72089,0,0,1,224.1411,0h11.4673a4.76184,4.76184,0,0,1,4.7149,4.749v9.1118l-7.708,1.7964V7.7002h-5.543V37.1518h5.543l0.0009-8.791h0Z"/><path class="cls-2" d="M261.0879,0a4.762,4.762,0,0,1,4.7158,4.749V40.1689a4.8052,4.8052,0,0,1-4.7158,4.7491H249.6201a4.76315,4.76315,0,0,1-4.7138-4.7491V4.749A4.722,4.722,0,0,1,249.6201,0h11.4678Zm-2.9931,7.7002h-5.544V37.1518h5.544V7.7002Z"/><path class="cls-2" d="M290.836,0h7.58V44.918h-7.6455V22.8437l-3.0586,11.42239h-7.4531L277.2647,22.8437V44.918h-7.6455V0h7.581l6.8164,21.688Z"/><path class="cls-2" d="M323.13279,37.1518V44.918H302.2373V0h20.8955V7.7002H309.8809V18.5439h10.5752v7.70019H309.8809V37.1518h13.2519Z"/><path class="cls-3" d="M44.4658,157.6099A20.45511,20.45511,0,0,0,31.564,152.647c-3.5718,0-8.3379,2.0839-8.3379,6.2529,0,4.3682,5.2607,6.0552,8.6357,7.146l4.9644,1.4892c10.4219,3.0767,18.4609,8.337,18.4609,20.4473,0,7.4453-1.7871,15.0879-7.7422,20.1494-5.8549,4.9639-13.6967,7.0479-21.2397,7.0479A46.184,46.184,0,0,1,0,206.64259L8.3379,190.96c4.8652,4.2685,10.6211,7.7421,17.271,7.7421,4.5659,0,9.4302-2.2832,9.4302-7.5449,0-5.459-7.6431-7.3447-11.812-8.5351-12.208-3.4756-20.249-6.6495-20.249-21.1431,0-15.188,10.8178-25.1118,25.8071-25.1118A51.19142,51.19142,0,0,1,52.211,142.521Z"/><path class="cls-3" d="M91.8311,154.831v12.5059h21.937v16.4795H91.8311v12.8994H114.958v16.4795H72.376V138.355h42.582v16.477H91.8311v-0.001Z"/><path class="cls-3" d="M129.417,138.354h27.5943c20.8437,0,38.0156,16.3769,38.0156,37.4194,0,21.041-17.271,37.4199-38.0156,37.4199H129.417V138.354Zm19.4551,58.3638h4.3672c11.6118,0,21.5386-6.3516,21.5386-20.9424,0-13.4004-8.834-20.9434-21.3409-20.9434h-4.5649v41.8858Z"/><path class="cls-3" d="M286.8731,174.38479c0,24.2187-17.3711,41.2919-41.3936,41.2919-24.0195,0-41.3906-17.0712-41.3906-41.2919,0-22.6319,19.852-38.5127,41.3906-38.5127C267.0186,135.87209,286.8731,151.7529,286.8731,174.38479Zm-62.5342.0991c0,12.9048,9.5293,22.3325,21.1406,22.3325,11.6133,0,21.1436-9.4297,21.1436-22.3325,0-10.3228-9.5264-19.752-21.1436-19.752C233.8672,154.7319,224.3389,164.16209,224.3389,174.48389Z"/><path class="cls-3" d="M297.2383,138.354h19.4541l35.6357,45.7573h0.1963V138.354h19.4532v74.8393h-19.4532l-35.6347-45.8564h-0.1973v45.8564H297.2383V138.354Z"/><path class="cls-3" d="M407.34479,200.19139l-5.1602,13.0019h-20.6455l28.7851-74.8393h21.2422l28.1875,74.8393h-20.7451l-4.8623-13.0019h-26.8017Zm13.6005-38.7105h-0.1992l-8.039,23.8238h16.1777Z"/><path class="cls-3" d="M108.0801,287.74119c7.65772-2.5889,8.24219-12.18066.69287-12.18066-2.0791,0-4.55907,1.459-6.272,4.44824L92.2891,297.66009a14.72032,14.72032,0,0,1-1.458,2.1504c-2.626-3.6093-1.8599-9.0058,1.8227-11.3769l-1.5317-1.9346c-7.9502,5.0694-5.6162,19.6924,7.6592,19.6924C110.12307,306.19339,115.37405,292.59179,108.0801,287.74119Zm-9.3721,15.5342a10.927,10.927,0,0,1-5.4702-1.3115,19.73939,19.73939,0,0,0,1.896-2.6983l6.3814-11.0508,1.021,0.1084C111.43606,290.18549,107.898,303.27539,98.708,303.27539Zm4.084-17.2852,3.063-5.25193c2.771-4.77539,6.30909-1.96875,4.41211,1.60449C108.81106,285.07809,106.65823,285.917,102.792,285.99019Z"/><path class="cls-3" d="M140.1602,300.00189c-0.6289,2.2481.5718,4.0762,3.146,4.0762,1.5307,0,3.4277-.9844,5.25-2.4785,0.1841,1.459,1.3511,2.4785,3.2827,2.4785,2.02,0,4.2344-1.3945,6.3931-3.3574-0.42,2.0488.541,3.3574,2.4101,3.3574,2.0801,0,4.4141-1.8965,6.2359-3.6465-0.3648,2.043.8398,3.6465,3.246,3.6465,3.1373,0,6.7471-3.3535,9.8829-7.0019a1.56328,1.56328,0,0,0-.1006-0.1514c2.0967-2.4385,3.9458-5.0264,5.2685-6.7764-1.4956,3.9375-.6928,11.0137-4.3047,11.0137a2.11932,2.11932,0,0,1-1.7871-1.3867l-2.3711,1.2402a4.13508,4.13508,0,0,0,4.1573,3.0625c0.3647,0,.6919-0.0371,1.0581-0.0722,0.0366,0,.0727-0.0352.1089-0.0352,2.7856-.3691,5.5498-2.0645,7.9428-4.2256,0.0581,2.4951,1.9942,4.333,5.145,4.333,4.3028,0,8.5699-3.3535,11.7071-7.0019a3.28743,3.28743,0,0,0-1.4219-1.3125l-0.2554.2929c-2.7348,3.1719-6.2358,5.6875-8.8969,5.6875-2.334,0-3.7207-1.459-1.9698-4.5215l0.3648-.6562c2.4424,1.0205,7.0381.5469,9.8833-4.377l0.5469-.9472c2.0419-3.502.0727-6.127-3.0259-6.127a8.02044,8.02044,0,0,0-7.1114,4.375l-3.6835,6.3184c-0.0352-.0117-0.0704-0.0371-0.104-0.0459l-0.2554.292a23.69738,23.69738,0,0,1-4.5591,4.1211c1.2031-3.6094.9482-9.1524,3.2822-14.0039l-2.8442-1.5313c-1.5679,2.1504-4.9956,7.1104-8.4248,11.1221,0.0332,0.0459.0742,0.0908,0.1108,0.1377l-0.1357.1543c-2.7349,3.1719-5.397,5.6875-7.0752,5.6875-0.8379,0-1.312-.5821-0.438-2.0781l8.0962-14.1875h-3.793l-6.7471,11.7793c-2.8808,2.6259-5.104,4.0839-5.8349,3.7558-0.9473-.4004,0-1.8223.4751-2.625l7.4018-12.9101h-3.7929l-6.0362,10.4462a2.18988,2.18988,0,0,0-.288-0.1621l-0.2549.292c-2.7349,3.1719-5.397,5.6875-7.0752,5.6875-0.8379,0-1.3115-.582-0.438-2.0781l6.1274-10.7227h-2.1523a3.94127,3.94127,0,0,0-3.9751-3.83c-2.042,0-4.8867,1.6054-6.4907,4.3769l-3.8462,6.6367a2.84858,2.84858,0,0,0-.5767-0.3642l-0.2554.292c-2.7348,3.1718-6.2358,5.6875-8.8969,5.6875-2.334,0-3.7207-1.459-1.9707-4.5205l3.9018-6.7823c2.188-3.7568,6.0542-3.1367,3.791.8008l-0.5468.9492h3.101l0.5469-.9492c2.042-3.5.0728-6.1269-3.0259-6.1269a8.02015,8.02015,0,0,0-7.1113,4.3769l-3.77,6.4668a2.40777,2.40777,0,0,0-.3477-0.1943l-0.2553.292c-2.73491,3.1718-6.23588,5.6875-8.897,5.6875-2.335,0-3.7207-1.459-1.9707-4.5205l0.36475-.6573c2.44287,1.0215,7.03906.5469,9.8833-4.375l0.54687-.9492c2.042-3.5.0728-6.1269-3.02734-6.1269a8.0197,8.0197,0,0,0-7.10987,4.3769l-3.97607,6.8184c-2.37061,4.0488-.32764,7.7676,4.15723,7.7676,3.34082,0,6.65674-2.0225,9.44189-4.6348-0.09814,2.6465,1.86526,4.6348,5.14116,4.6348C134.4322,304.07809,137.5078,302.33789,140.1602,300.00189Zm58.0288-9.5625c2.188-3.7558,6.0542-3.1367,3.791.8018l-0.5469.9482c-1.8222,3.0997-4.2671,3.0264-5.688,2.5157Zm-54.1909,9.2266,5.2881-9.2266c2.0419-3.539,6.0898-2.6269,4.229.8018l-2.9532,5.1797c-2.2968,3.6084-4.56,5.3232-6.1269,5.3232C143.5982,301.74409,143.1231,301.16109,143.9981,299.666Zm-24.18411-9.2266c2.188-3.7558,6.0542-3.1367,3.791.8018l-0.54687.9482c-1.82227,3.0997-4.26709,3.0264-5.688,2.5157Z"/><path class="cls-3" d="M248.3975,304.07809c4.3037,0,8.5723-3.3535,11.707-7.0019a3.27108,3.27108,0,0,0-1.4219-1.3125l-0.2539.2929c-2.7363,3.1719-6.2363,5.6875-8.9004,5.6875-2.3339,0-3.7207-1.459-1.9707-4.5215l0.3653-.6562c2.4443,1.0205,7.0381.5469,9.8828-4.377l0.5469-.9472c2.0429-3.502.0742-6.127-3.0264-6.127a8.02336,8.02336,0,0,0-7.1104,4.375l-3.6933,6.3369c-0.0371-.0185-0.0762-0.0478-0.1123-0.0634l-0.2559.2929c-2.7344,3.1719-5.3955,5.6875-7.0742,5.6875-0.8389,0-1.3115-.583-0.4385-2.0791l5.4707-9.5908c1.6416-2.8808.0723-4.9609-2.0429-4.9609-1.6426,0-3.3926.9121-5.2871,2.8818l6.0537-10.54h-3.793l-10.6968,18.56053a2.42911,2.42911,0,0,0-.4341-0.2519l-0.2558.292c-2.7354,3.1728-5.396,5.6884-7.0752,5.6884-0.8379,0-1.312-.583-0.438-2.0791l8.1328-14.1865h3.1011l1.0947-1.8242H227.335l3.5742-6.19923h-3.793l-3.5742,6.19923h-3.4277l-1.0943,1.8242h3.4629l-7.622,13.2031c-1.604,2.8086-.4737,5.3965,2.5893,5.3965,1.8848,0,3.9409-1.2168,5.9619-2.9746l-1.5039,2.6094h3.8301l5.7617-10.0293c5.835-7.3301,8.4248-6.3819,6.7832-3.5742l-4.9228,8.5713c-1.6045,2.8076-.4746,5.3955,2.5888,5.3955,2.3047,0,4.8643-1.8116,7.3038-4.2207C243.3643,302.29689,245.294,304.07809,248.3975,304.07809Zm3.0635-13.6387c2.1884-3.7558,6.0556-3.1367,3.7929.8018l-0.5468.9482c-1.8243,3.0997-4.2686,3.0264-5.6905,2.5157Z"/><path class="cls-3" d="M363.416,295.76559l-0.25581.291c-2.7315,3.1719-5.3955,5.6885-7.07419,5.6885-0.83791,0-1.31161-.583-0.43851-2.0791l12.8379-22.209h-3.793l-5.5791,9.628a4.11276,4.11276,0,0,0-3.4658-1.9698c-2.043,0-4.8867,1.6045-6.4912,4.376l-3.7119,6.4053a2.34247,2.34247,0,0,0-.23539-0.1328l-0.25591.2929c-2.7333,3.1719-5.3955,5.6875-7.0742,5.6875-0.8398,0-1.3115-.583-0.4384-2.0791l5.4697-9.5908c1.6435-2.8808.0732-4.9609-2.041-4.9609-1.6436,0-3.3545.875-5.252,2.8457l1.4219-2.4785h-3.793l-6.0615,10.4863a2.57369,2.57369,0,0,0-.3604-0.2031l-0.2568.2929c-2.73339,3.1719-5.3955,5.6875-7.0732,5.6875-0.8379,0-1.3116-.583-0.4385-2.0791l6.1269-10.7216h-2.1513a3.94211,3.94211,0,0,0-3.9756-3.8301c-2.043,0-4.88869,1.6045-6.4922,4.375l-3.666,6.3301-0.207.2343c-2.7334,3.1719-5.3956,5.6875-7.0733,5.6875-0.8389,0-1.3115-.582-0.4385-2.0781l3.793-6.6367c1.3125-2.2988.6914-3.6465-.5469-5.1426l-2.1152-2.5537a1.47907,1.47907,0,0,1,.2197-2.1885l-1.9697-2.15037c-2.1514,1.93357-2.334,4.084-.9854,5.835l0.3301,0.4375c-1.6787,2.3711-3.9394,5.5801-6.4209,8.4971a3.42,3.42,0,0,0,.2588.3212c-3.125,3.5928-5.7812,5.918-8.7627,7.1905l4.8125-8.2422h-3.793l-0.4003.6582c-2.0059,3.5371-4.3047,6.0537-7.2579,6.0537-2.5898,0-3.0615-2.5889-.8027-6.4551l1.0586-1.8594a13.618,13.618,0,0,0,2.1504.1827c13.4941,0,20.0215-18.05082,8.1348-18.05082-2.0801,0-4.5606,1.459-6.2735,4.44825l-5.9072,10.17477a6.10554,6.10554,0,0,1-3.3916-5.3965,6.03211,6.03211,0,0,1,2.4414-4.77632l-1.2383-2.22559a8.35851,8.35851,0,0,0,.875,14.624l-1.1308,1.9697c-2.6621,4.5957-2.1875,9.7002,3.1738,9.7002a7.60487,7.60487,0,0,0,4.1211-1.2041l-0.9863,1.7149c-5.1407,1.5664-8.3135,3.6465-8.3135,6.4902,0,3.6465,5.5801,4.4131,8.3135-.2549l2.9179-4.9961c3.9395-1.2392,7.8057-3.9384,11.9639-8.7519a2.30479,2.30479,0,0,0-.2363-0.3565c1.6845-1.9785,3.1132-3.8886,5.9716-7.7753l0.5098,0.621a1.86268,1.86268,0,0,1,.2188,2.1514l-4.0118,6.9639c-1.6054,2.8066-.4746,5.3955,2.5899,5.3955,1.9062,0,3.9883-1.2442,6.0332-3.0361-0.0449,1.7451,1.1474,3.0361,3.3105,3.0361,1.5313,0,3.42779-.9844,5.25-2.4795,0.18359,1.459,1.35159,2.4795,3.28319,2.4795,1.8164,0,3.7911-1.1299,5.7422-2.7852l-1.39839,2.4209h3.82809l5.7988-10.1035c5.7989-7.2558,8.3887-6.3086,6.74611-3.5l-4.92181,8.5703c-1.6036,2.8086-.4747,5.3965,2.58781,5.3965,2.01759,0,4.22659-1.3887,6.38089-3.3457-0.2012,1.9004,1.0078,3.3457,3.2949,3.3457,1.5313,0,3.4278-.9844,5.252-2.4795,0.1826,1.46,1.3506,2.4795,3.28121,2.4795,3.13679,0,6.74609-3.3545,9.88279-7.0019A3.29968,3.29968,0,0,0,363.416,295.76559Zm-77.9619-14.15135c1.1309-1.93262,2.3711-2.77149,3.4297-2.77149,6.0176,0,1.7871,12.25294-8.1328,12.25294h-0.7656Zm-8.0586,28.59085c-0.8007,1.4218-2.0781,1.2041-2.0781.1836,0-.9844.875-2.1143,3.793-3.2461Zm39.6924-13.7842c-2.2988,3.6084-4.5596,5.3232-6.12689,5.3232-0.8399,0-1.3116-.583-0.4385-2.0791l5.2871-9.2275c2.043-3.5371,6.0898-2.625,4.2305.8027Zm36.7022-.2197c-2.2989,3.7558-4.6328,5.5429-6.2364,5.5429-0.8379,0-1.3115-.583-0.4375-2.0791l5.2871-9.2275c2.043-3.5371,6.0899-2.625,4.2295.8027H356.668Z"/><path class="cls-3" d="M236.7119,331.76369l-0.2548.2929c-2.7334,3.1719-5.3956,5.6885-7.0743,5.6885-0.8398,0-1.312-.583-0.438-2.0791l5.4712-9.5908c1.6416-2.8809.0713-4.96-2.0429-4.96-1.6416,0-3.354.875-5.251,2.8448l1.4219-2.4786h-3.793l-6.1108,10.5733a2.72831,2.72831,0,0,0-.4844-0.291l-0.2559.2929a8.18094,8.18094,0,0,1-5.7251,2.8086l3.5733-6.1631c2.2968-3.9765.1831-7.7304-3.3921-7.7304-2.918,0-5.1778,1.167-7.3672,4.9599l-1.8599,3.2451-1.6259,2.7813a2.49834,2.49834,0,0,0-.3428-0.1924l-0.2554.293c-3.1367,3.6084-5.7988,5.9424-8.7886,7.2217l10.3946-17.7969h-3.793l-6.709,11.6699c-2.918,2.6973-5.1787,4.1924-5.9077,3.8643-0.9482-.3994,0-1.8223.4741-2.625l7.4029-12.9092h-3.793l-6.0513,10.4697a2.5301,2.5301,0,0,0-.332-0.1875l-0.2549.293c-2.7349,3.1728-5.397,5.6885-7.0747,5.6885-0.8384,0-1.312-.583-0.438-2.0791l5.4697-9.5909c1.6421-2.8808.0733-4.9599-2.042-4.9599-1.6411,0-3.3549.875-5.2509,2.8447l1.4228-2.4785h-3.7939l-6.062,10.4853a2.61919,2.61919,0,0,0-.3599-0.2031l-0.2549.293c-2.7344,3.1728-5.396,5.6885-7.0752,5.6885-0.8379,0-1.312-.583-0.438-2.0791l6.128-10.7207H161.626a3.94252,3.94252,0,0,0-3.9761-3.8301c-2.041,0-4.8867,1.6045-6.4897,4.3769l-3.918,6.7627a2.16494,2.16494,0,0,0-.831-0.4902l-0.2554.293c-2.7349,3.1728-6.0899,5.6884-9.8477,5.6884-2.5883,0-4.1562-2.5888-1.896-6.455l1.0577-1.8594a13.6406,13.6406,0,0,0,2.1513.1846c4.0479,0,8.6441-2.0801,11.6338-7.295a10.51243,10.51243,0,0,0,1.5313-5.1045c0-3.4287-2.2251-5.6513-5.0323-5.6513-2.0791,0-4.5591,1.459-6.2719,4.4482l-5.9082,10.1758a6.11083,6.11083,0,0,1-3.3926-5.3975,6.02671,6.02671,0,0,1,2.4428-4.7763l-1.2402-2.2256a8.359,8.359,0,0,0,.875,14.624l-1.1299,1.9707c-2.6611,4.5957-1.0937,9.6992,4.2671,9.6992,4.2417,0,7.354-1.8886,9.9688-4.372-0.8257,2.3837.374,4.372,3.0591,4.372,1.5322,0,3.4282-.9843,5.2519-2.4785,0.1821,1.459,1.3501,2.4785,3.2813,2.4785,1.8159,0,3.7919-1.1289,5.7417-2.7832l-1.398,2.4199h3.8291l5.7979-10.1025c5.7993-7.2578,8.3891-6.3105,6.748-3.5019l-4.9228,8.5673c-1.6041,2.8096-.4742,5.3965,2.5888,5.3965,2.041,0,4.2822-1.4248,6.4654-3.4228-0.4551,2.0859.5078,3.4228,2.3969,3.4228,1.8238,0,3.9009-1.5312,5.6157-3.0625l-2.0791,3.5742c-5.1416,1.5303-8.3505,3.6465-8.3505,6.4903,0,3.6465,5.5796,4.4131,8.3129-.2549l2.917-4.9961a23.91972,23.91972,0,0,0,9.5621-6.1953c-0.523,5.2969,6.5327,6.5049,10.7866,1.126h0.8384a11.07477,11.07477,0,0,0,4.9526-1.4551l-2.5498,4.4101h3.8301l5.7978-10.1025c5.7988-7.2578,8.3897-6.3105,6.7471-3.502l-4.9229,8.5704c-1.604,2.8095-.4751,5.3964,2.5899,5.3964,3.1377,0,6.7461-3.3544,9.8828-7.0019A3.28565,3.28565,0,0,0,236.7119,331.76369Zm-94.3867-14.1495c1.1299-1.9335,2.3706-2.7714,3.4278-2.7714,1.4228,0,2.0791.9472,2.0791,2.3339,0,3.5381-4.3033,9.919-10.211,9.919H136.855Zm13.355,14.8067c-2.2974,3.6094-4.5591,5.3232-6.127,5.3232-0.8383,0-1.312-.583-0.4379-2.0791l5.2876-9.2275c2.0419-3.5361,6.0903-2.625,4.229.8037Zm28.8511,13.7832c-0.8032,1.4228-2.0791,1.2041-2.0791.1846,0-.9844.9121-2.1143,3.8291-3.2461Zm25.5278-14.1846H209.875a2.24225,2.24225,0,0,0-2.2251,2.2627,2.46946,2.46946,0,0,0,.3653,1.2744l-0.0371.0733c-1.7862,3.0625-6.127,2.4795-3.8653-1.459l2.8814-4.9961,1.8227-3.1006c2.6631-4.5215,6.3091-2.7344,4.0122,1.2041Z"/><path class="cls-3" d="M324.62009,333.07709a2.39517,2.39517,0,0,0-1.4218-1.3125l-0.2559.293a23.6204,23.6204,0,0,1-4.5596,4.1201c1.20321-3.6093.9473-9.1523,3.2813-14.0039l-2.8467-1.5322c-1.56539,2.1514-4.9951,7.1113-8.4238,11.123a0.19361,0.19361,0,0,0,.0215.0254c-0.0157-.0068-0.0313-0.0205-0.0469-0.0254l-0.2539.293c-2.7363,3.1719-5.3965,5.6885-7.0762,5.6885-0.8379,0-1.6406-.8389-1.6406-2.5527V333.625c2.6621,0.3281,5.4707-1.4229,7.2578-4.5215l1.0205-1.75c3.5352-6.0537-2.2266-8.0605-6.0918-4.5205l5.3955-9.373h-3.793l-10.8154,18.7666a3.06062,3.06062,0,0,0-.6924-0.459l-0.2568.2929c-2.7334,3.1729-6.2354,5.6885-8.8975,5.6885-2.3339,0-3.7187-1.459-1.9687-4.5215l3.8994-6.7822c2.1885-3.7568,6.0547-3.1367,3.793.8027l-0.5469.9483h3.1016l0.5478-.9483c2.041-3.5009.0713-6.1269-3.0273-6.1269a8.01985,8.01985,0,0,0-7.1114,4.3769l-3.7324,6.4043a2.18108,2.18108,0,0,0-.2334-0.1338l-0.2568.293c-2.7334,3.1729-5.3955,5.6885-7.0733,5.6885-0.8398,0-1.3115-.583-0.4384-2.0791l8.0966-14.1856h-3.7939l-6.7451,11.7784c-2.8838,2.625-5.1045,4.0839-5.836,3.7558-0.9472-.3994,0-1.8222.4747-2.625l7.4023-12.9092h-3.793l-7.3652,12.7432a22.669,22.669,0,0,1-2.4492,1.9522c1.2031-3.6094.9472-9.1524,3.2812-14.004l-2.8437-1.5322c-1.5684,2.1514-10.3213,13.75-13.75,17.7617a5.49759,5.49759,0,0,0,1.4228,1.3125c2.1504-2.4795,9.3721-11.7793,10.7227-13.5654-1.4961,3.9375-.6934,11.0137-4.3047,11.0137a2.11846,2.11846,0,0,1-1.7871-1.3867l-2.3701,1.2392a4.13442,4.13442,0,0,0,4.1572,3.0625,10.4265,10.4265,0,0,0,1.0586-.0722c0.0351,0,.0723-0.0362.1074-0.0362a13.16919,13.16919,0,0,0,5.6309-2.3789,2.28907,2.28907,0,0,0,2.5097,2.4873c2.0762,0,4.4121-1.8965,6.2344-3.6465-0.3633,2.043.8379,3.6465,3.2461,3.6465,2.3555,0,4.9785-1.8935,7.4668-4.3799,0.0332,2.5196,1.9746,4.3799,5.1445,4.3799,3.0782,0,6.1377-1.7197,8.7754-4.0312l-2.1133,3.6679h3.8301l4.3399-7.5498v3.0264c0,3.2441.6191,4.8867,3.6826,4.8867,3.1367,0,6.748-3.3545,9.8847-7.0019a0.12589,0.12589,0,0,1-.0205-0.0342c0.0157,0.0127.0313,0.0234,0.0469,0.0342,2.1524-2.4795,4.0488-5.1426,5.3955-6.9297-1.4931,3.9385-.6904,11.0146-4.3027,11.0146a2.12016,2.12016,0,0,1-1.78709-1.3867l-2.3711,1.2393a4.136,4.136,0,0,0,4.1582,3.0625,10.5837,10.5837,0,0,0,1.0596-.0723c0.0341,0,.0693-0.0361.1064-0.0361C317.94629,339.458,321.77639,336.39649,324.62009,333.07709Zm-25.1875-2.9912,1.0938-1.8955c4.3769-6.0918,7.3672-4.4131,6.0176-2.1152l-1.8223,3.1357C303.5879,331.18069,300.2705,332.56639,299.4326,330.08589Z"/><path class="cls-3" d="M324.47369,335.665a2.1807,2.1807,0,0,0-2.1895,2.2256,2.149,2.149,0,0,0,2.1895,2.1885,2.18084,2.18084,0,0,0,2.2246-2.1885A2.21259,2.21259,0,0,0,324.47369,335.665Z"/><polygon class="cls-3" points="324.655 334.171 328.485 334.171 340.372 313.456 336.581 313.456 324.655 334.171"/><path class="cls-3" d="M80.4112,277.581a2.46742,2.46742,0,0,1-.169.8789,2.39822,2.39822,0,0,1-.5073.79688,2.60208,2.60208,0,0,1-.8286.57422,2.64981,2.64981,0,0,1-1.1001.2207,3.4401,3.4401,0,0,1-1.3032-.25293,2.95071,2.95071,0,0,1-1.064-.72852,3.10122,3.10122,0,0,1-.5747-1.04882,4.0126,4.0126,0,0,1-.2031-1.28516,5.91855,5.91855,0,0,1,1.7587-4.29688,5.76786,5.76786,0,0,1,.8462-0.69336,9.14143,9.14143,0,0,1,.896-0.541c0.2808-.14649.523-0.26367,0.7271-0.35352,0.2026-.09082.3276-0.14648,0.373-0.16992l1.3531,1.99609c-0.2491.08984-.5245,0.209-0.8291,0.35449a4.63172,4.63172,0,0,0-.8614.54,2.9499,2.9499,0,0,0-.6777.76172,2.15456,2.15456,0,0,0-.3042,1.01562,2.741,2.741,0,0,1,1.7251.5752A1.96922,1.96922,0,0,1,80.4112,277.581Zm7.8657,0a2.41952,2.41952,0,0,1-.1699.8789,2.37779,2.37779,0,0,1-.5059.7959,2.57783,2.57783,0,0,1-.8301.57422,2.66011,2.66011,0,0,1-1.1001.2207,3.43458,3.43458,0,0,1-1.3017-.25293,2.94007,2.94007,0,0,1-1.065-.72754,3.14557,3.14557,0,0,1-.5742-1.04882,4.05166,4.05166,0,0,1-.2031-1.28516,5.91588,5.91588,0,0,1,1.7593-4.29688,5.604,5.604,0,0,1,.8466-0.69238,9.02572,9.02572,0,0,1,.896-0.541c0.2823-.14551.5244-0.26465,0.7281-0.3545,0.2041-.08789.3271-0.1455,0.372-0.168l1.3531,1.9961c-0.2481.08984-.523,0.209-0.8282,0.35352a4.57372,4.57372,0,0,0-.8628.541,2.8779,2.8779,0,0,0-.6757.76074,2.13015,2.13015,0,0,0-.3052,1.0166,2.74117,2.74117,0,0,1,1.7251.57422A1.96909,1.96909,0,0,1,88.2769,277.581Z"/><path class="cls-3" d="M353.43849,336.52339a2.45719,2.45719,0,0,1,.168-0.8808,2.4,2.4,0,0,1,.5078-0.795,2.58459,2.58459,0,0,1,.8281-0.5742,2.66075,2.66075,0,0,1,1.09961-.2207,3.45328,3.45328,0,0,1,1.30279.253,2.92333,2.92333,0,0,1,1.0644.7294,3.11086,3.11086,0,0,1,.5762,1.0479,4.05587,4.05587,0,0,1,.2031,1.2861,5.90948,5.90948,0,0,1-1.7598,4.295,5.662,5.662,0,0,1-.8486.6933,8.1124,8.1124,0,0,1-.8955.541c-0.2813.1455-.5225,0.2657-0.7285,0.3545-0.20309.0889-.3242,0.1465-0.37109,0.1699l-1.35351-1.9961c0.248-.0898.5224-0.2089,0.8281-0.3544a4.60355,4.60355,0,0,0,.8623-0.5411,2.917,2.917,0,0,0,.6768-0.7627,2.12551,2.12551,0,0,0,.3046-1.0136,2.7307,2.7307,0,0,1-1.7246-.5762A1.973,1.973,0,0,1,353.43849,336.52339Zm-7.8672,0a2.42179,2.42179,0,0,1,.1699-0.8808,2.39446,2.39446,0,0,1,.5059-0.795,2.59476,2.59476,0,0,1,.8301-0.5742,2.65709,2.65709,0,0,1,1.0996-.2207,3.45993,3.45993,0,0,1,1.3027.253,2.93982,2.93982,0,0,1,1.06451.7294,3.142,3.142,0,0,1,.57419,1.0479,4.00028,4.00028,0,0,1,.2031,1.2861,5.91839,5.91839,0,0,1-1.7578,4.295,5.74117,5.74117,0,0,1-.8467.6933,9.33676,9.33676,0,0,1-.8955.541c-0.2812.1455-.5234,0.2657-0.7295,0.3545-0.2021.0889-.3252,0.1465-0.3701,0.1699l-1.3555-1.9961c0.25-.0898.5254-0.2089,0.8301-0.3544a4.56392,4.56392,0,0,0,.8613-0.5411,2.93893,2.93893,0,0,0,.6778-0.7627,2.15922,2.15922,0,0,0,.3047-1.0136,2.74567,2.74567,0,0,1-1.7266-.5762A1.96924,1.96924,0,0,1,345.57129,336.52339Z"/></svg>