<svg id="Layer_1" data-name="Layer 1" xmlns="http://www.w3.org/2000/svg" viewBox="0 0 101.668 83.9839"><defs><style>.cls-1{fill:#23a9e1;}.cls-2{fill:#491213;}.cls-3{fill:#fff;}.cls-4{fill:#dc6243;}.cls-5{fill:#f49774;}.cls-6{fill:#f4b1a4;}</style></defs><title>logo-mobile</title><g id="Layer_2" data-name="Layer 2"><g id="Layer_2-2" data-name="Layer 2"><polygon class="cls-1" points="0 0 50.581 59.054 101.668 0 0 0"/><path class="cls-2" d="M50.9189,0H0V22.4629l50.582,61.521,0.3379-.4238L101.668,23.166V0H50.9189Zm0,57.0503-0.3379.4101L3.708,1.7764H98.126Z"/><path class="cls-2" d="M50.581,57.4604l0.3379-.4101L78.4951,24.7637c-6.9121.9492-11.8633,6.0761-18.6045,4.955-3.3955-.5634-3.498-2.5136-4.4687-4.455-0.7461-1.4932-1.9385-1.3028-3.4864-1.9102-1.4433-.5644-2.2773-1.7383-5.1621-1.0605-2.5283.5918-2.8086,4.5175-5.9531,4.2929-1.6885-.1211-1.8106-2.498-4.2441-5.539-6.3008-7.5713-12.1573-6.5235-16.2452.4746Z"/><path class="cls-3" d="M23.2793,32.248a2.80819,2.80819,0,0,1,.8056,2.1163c-0.0595.5791-.9365,1.5498-0.2705,1.8466q1.12215-1.41645,2.2422-2.8339c-0.6015-.1514-5.3652-5.8487-5.4414-6.4727q-1.57905.86715-3.1592,1.7344c0.1641,0.6601,1.295.0049,1.8545,0.0459a2.92181,2.92181,0,0,1,1.9532,1.1513c-1.7295,1.4493-5.9317,5.0176-6.375,5.0899-0.2266.0371-1.0889-.6006-1.1016-0.0547a4.85463,4.85463,0,0,0,1.0146,1.209q1.1148,1.327,2.2286,2.6523c0.6191-.2812-0.1084-0.7304.205-1.2422,0.2344-.375,4.9043-4.2666,6.044-5.2422h0Z"/><path class="cls-3" d="M18.0068,25.2686c0.4424-.0948.6231,0.4335,0.957-0.0557q-1.2216-1.4604-2.4472-2.918c-0.3721-.4414-0.8408-0.916-0.707.0186,0.0888,0.6299-6.1133,5.664-6.4932,5.8193-0.4785.1973-.7578-0.416-1.1084,0.0977q1.09575,1.30365,2.1924,2.6074c0.2461,0.293.4775,0.6123,0.747,0.8828,0.3389,0.3389.2081-.6719,0.2247-0.5859a1.65215,1.65215,0,0,1,.8544-1.2276A60.43692,60.43692,0,0,1,18.0068,25.2686Z"/><path class="cls-3" d="M9.2353,24.3516a3.21532,3.21532,0,0,1-4.207-2.042c-0.543-1.835.6143-3.7569,2.0713-4.8018,1.4385-1.0312,3.5889-.9687,4.373.8379a3.61223,3.61223,0,0,1-.0947,2.5029c-0.1601.5059-.5976,1,0.0567,1.2881q1.289-1.64355,2.581-3.2851c-1.0557-.6329-1.5185-1.6836-2.3008-2.5957a5.86815,5.86815,0,0,0-3.4814-2.2832c-2.8701-.4063-5.5742,2.5556-5.7949,5.2441a5.75576,5.75576,0,0,0,1.2461,4.0019c0.75,0.9942,1.8671,1.6231,2.4355,2.754a22.464,22.464,0,0,0,3.2852-1.2559,1.559,1.559,0,0,0-.17-0.3652h0Z"/><path class="cls-3" d="M48.5361,60.7593c-1.1504-.7676-4.0254-4.6895-4.5742-5.3399-0.1074-.1308-0.2197-0.2617-0.3281-0.3925a2.21538,2.21538,0,0,0-.2461.1894c-0.1739.1465,0.1347,0.5742-.0528,0.8652-0.7929,1.2383-5.7587,4.9805-6.0166,5.1621-0.5546.3848-1.164-.1582-1.4873,0.3145a44.435,44.435,0,0,0,3.0196,3.582c0.4795,0.0782.1465-.8144,0.2109-1a31.55537,31.55537,0,0,1,3.5488-3.2109c0.336-.2813.6885,0.4258,0.8877,0.7227a1.76235,1.76235,0,0,1,.2989,1.5683c-0.1172.3711-.7168,0.9199-0.25,1.1738,0.6191-.7226,2.3603-2.7539,2.6123-3.0488,0.2529-.293-0.5655-0.0371-0.4688-0.0859a0.91685,0.91685,0,0,1-1.0635-.0293,4.947,4.947,0,0,1-.9902-1.166,4.641,4.641,0,0,1,1.5176-1.0996c0.8633-.2129,1.582,1.5156,1.709,2.1289a3.453,3.453,0,0,1-.0752,1.75c-0.1231.3867-.4864,0.6972,0.0175,0.9296q1.06935-1.4589,2.1329-2.9199a0.67533,0.67533,0,0,1-.4024-0.0937C48.4082,60.6753,48.6748,60.8296,48.5361,60.7593Z"/><path class="cls-3" d="M38.3115,56.6284a5.47763,5.47763,0,1,0-7.793-1.0664,5.41563,5.41563,0,0,0,7.793,1.0664C39.4678,55.6538,38.2119,56.6987,38.3115,56.6284Zm-0.4648-4.7519a7.44127,7.44127,0,0,1-3.7325,3.666c-1.8173.7148-3.0996-.8262-2.3584-2.5528a7.45507,7.45507,0,0,1,3.7354-3.666c1.8516-.7339,3.0664.8457,2.3555,2.5528C37.4658,52.7651,37.917,51.7065,37.8467,51.8765Z"/><path class="cls-3" d="M31.8672,42.0205c0.4756,0.0615.9267,0.5508,1.2685,0.043q-1.1103-1.31835-2.2275-2.6377c-0.5957.2685,0.0478,0.5498-.1944,0.9717-0.2441.4257-2.5595,0.7802-3.1757,0.8896a15.97071,15.97071,0,0,1,1.1572-2.835c0.543-.4443.8838,0.4327,1.2832-0.1406q-1.374-1.626-2.7441-3.2529c-0.3106-.3662-0.5586-1.0283-0.9795-0.6797a8.38541,8.38541,0,0,1-.0879,1.7314c-0.086.2354-.9365,3.6397-1.9268,4.4717a21.44363,21.44363,0,0,1-2.7021,2.0957c-0.541.1885-.8243-0.5976-1.2198-0.0371q1.24515,1.4796,2.4903,2.9571a4.28779,4.28779,0,0,0,.7676.8925c0.5214,0.0957.0595-.8925,0.1132-1.0859,0.1504-.4297,2.5-2.7188,3.4961-2.8574a19.26022,19.26022,0,0,1,4.6817-.5264C32.206,42.0635,31.5166,41.9775,31.8672,42.0205Z"/><path class="cls-3" d="M69.206,52.4487a4.985,4.985,0,0,1,.2149,2.0098c-0.1074.873-.9795,2.9238-2.1738,2.3398a18.39635,18.39635,0,0,1-3.1885-2.5527c0.8027-.9355,1.5078-1.748,2.8545-1.2949,0.3701,0.123.6884-.0352,0.2988-0.2617-0.4043-.2344-3.1133-1.9649-3.2607-1.7989-0.2706.3106,0.5273,0.8672,0.2216,1.4727a6.99656,6.99656,0,0,1-.9326,1.2187c-0.7207-.6074-1.9238-1.2519-1.0566-2.2558a3.68267,3.68267,0,0,1,2.0976-1.3418c0.5645-.1133,1.8409.3887,2.0069-0.2246q-1.63335-.78225-3.2588-1.564c0.1767,0.7983-3.3496,4.523-4.1309,5.4624a3.16644,3.16644,0,0,0-.664.7988c-0.0098.4278,0.6211,0.0957,0.6562,0.084,0.4863-.1816,6.8164,5.1074,6.9727,5.4707a2.03184,2.03184,0,0,0-.0284.7305,0.85985,0.85985,0,0,0,.2539.1855c0.3907-.4687,4.5206-5.9765,5.3731-6.2168-0.793-1.2148-1.5879-2.4316-2.3672-3.6523C68.5049,51.3159,69.0742,52.0073,69.206,52.4487Z"/><path class="cls-3" d="M63.0439,59.1519c-2.0761-1.3399-5.5967,1.2792-6.125,1.5312a0.99585,0.99585,0,0,1-1.25-1.502,2.77252,2.77252,0,0,1,2.3106-1.289,4.68218,4.68218,0,0,0,1.459.0254c0.1289-.2031.2275-0.2227,0.041-0.3477q-1.28175-.86715-2.5655-1.7324c-0.1767,1.0566-1.3857,1.7285-2.0761,2.4395a4.70927,4.70927,0,0,0-1.5205,3.1562,3.029,3.029,0,0,0,1.6767,2.6602,3.30656,3.30656,0,0,0,3.3233-.5098,19.007,19.007,0,0,1,1.9238-1.1719c0.9961-.4668,2.3057-0.0625,1.9531,1.2695A3.58918,3.58918,0,0,1,59.791,66.021a3.29093,3.29093,0,0,1-1.873-.0899c-0.4327-.1406-0.9922-0.7343-1.2295-0.1113q1.74015,1.27155,3.4804,2.5371a2.33008,2.33008,0,0,1,1.086-1.5625,11.70476,11.70476,0,0,0,1.9941-2.1289C64.4082,62.9722,64.7881,60.603,63.0439,59.1519Z"/><path class="cls-3" d="M63.0439,59.1519c0.9258,0.5976-.5898-0.4942,0,0h0Z"/><path class="cls-3" d="M92.2773,21.8379h0Z"/><path class="cls-3" d="M99.7344,19.6289c-0.7286.7285-8.42-2.3418-8.9815-2.7646-0.2891-.1163-0.2988-1.3213-0.7051-0.8331-0.4023.4883-.8095,0.9766-1.2148,1.4629q-0.627.75885-1.2559,1.5137c-0.2607.3135-.5371,0.457-0.039,0.7197,0.8379-.4189,5.4179,7.3457,5.0078,8.461-0.7256.376-6.9141-5.0576-7.0801-5.4151-0.0527-.1464.2725-1.0214-0.2109-0.9453a4.23348,4.23348,0,0,0-.8897,1.0723c-0.2969.3574-.5918,0.7148-0.8887,1.0723,0.3321,0.4843.5157-.0215,0.959,0.0419a13.22273,13.22273,0,0,1,2.2403,1.6631c-0.7256.0274-2.6866,0.1319-2.9346,0.1133-0.9033.1123-.4219-0.6621-1.0156-0.9307q-1.1397,1.38285-2.2774,2.7647c-0.4404.5352-.8847,1.0713-1.3252,1.6064-0.0537.0655-.0468,0.0323,0.0508,0.1123,0.3301,0.2725.1035,0.168,0.5674,0.0059,0.5068-.1777,6.5596,4.9307,6.7754,5.1895,0.3769,0.4502-.1543.9755,0.4121,1.2207q0.89939-1.0914,1.7969-2.1836c0.0918-.1094.1406-0.0996,0.0215-0.1973-0.4288-.3535-0.4776.2109-1.002,0.1533-0.5332-.0888-4.3955-3.3681-5.8955-4.6103,1.8203-.0674,7.291-0.2705,8.1973-0.3037a1.84223,1.84223,0,0,1,1.0673,1.2158c-0.0791.3789-.4629,0.5586,0.0557,0.7949,0.4785-.5762.9834-1.1494,1.4551-1.7344h0l0.2285-.2822a0.73582,0.73582,0,0,0,.209-0.2646l0.168-.211c0.4257-.4853,1.8007-2.0058,1.6347-2.1504-0.4609-.4004-0.6836.4658-1.2969-0.0537a12.84267,12.84267,0,0,1-1.4423-2.1621c-0.2647-.4492.6064-0.8975,0.9628-1.1191,0.7764-.4815,3.2481-1.1827,3.4815.3486a1.26946,1.26946,0,0,0-.084.7031c0.0449,0.0371.2051,0.2422,0.2705,0.1631,0.1641-.1963,2.3604-2.8428,3.3008-3.9687A1.37915,1.37915,0,0,0,99.7344,19.6289Zm-7.3731,2.1553c0.0772-.0489.1533-0.0977,0,0-0.0508.0322-.0732,0.0478-0.084,0.0537,0.0147-.0078.0469-0.0293,0.0821-0.0508a5.71914,5.71914,0,0,0-.959.7598q-0.78075-1.34475-1.5635-2.6924,1.76655,0.7368,3.5244,1.4814A3.71539,3.71539,0,0,0,92.3613,21.7842Z"/><path class="cls-3" d="M82.6152,32.9961a5.48186,5.48186,0,1,0,.5918,7.5996A5.37752,5.37752,0,0,0,82.6152,32.9961Zm-0.2803,6.6133a0.15373,0.15373,0,0,1-.0253.0254c-1.2315,1.2929-3.3565.0976-4.5059-.7305-1.1455-.8281-3.1094-2.5684-1.8555-4.1035,1.0576-1.2871,3.125-.2315,4.1914.4814,1.1992,0.8037,3.4121,2.5967,2.2754,4.2158A1.22948,1.22948,0,1,1,82.3349,39.6094Z"/><path class="cls-3" d="M82.6152,32.9961c1.1729,0.959-.2519-0.2119,0,0h0Z"/><path class="cls-3" d="M82.3076,39.6367c0.0098-.0097.0176-0.0195,0.0254-0.0264,0.0283-.0371.0566-0.0732,0.0801-0.1103C82.3633,39.5615,82.3037,39.6367,82.3076,39.6367Z"/><path class="cls-3" d="M76.0234,42.1191c0.1113,0.0938.2735,0.2246-.0615-0.0566-2.8359-2.127-6.1934-1.5039-8.4023,1.1562q-1.48245,1.78275-2.961,3.5665c0.3516,0.5117.7637-.1172,1.2735,0.1757,0.4355,0.25,6.2431,5.1011,6.3378,5.3648,0.1641,0.459-.2539.5488,0.1446,0.875a41.37287,41.37287,0,0,0,4.9365-6.189A4.34365,4.34365,0,0,0,76.0234,42.1191ZM74.706,48.8726a4.62933,4.62933,0,0,1-.664.6503c-0.3076.293-6.4385-4.6752-6.1914-4.9428a4.35169,4.35169,0,0,1,3.5761-1.2989C73.6152,43.8418,76.6396,46.543,74.706,48.8726Z"/></g><path class="cls-2" d="M50.5801,57.477l0.3388-.4091L78.4951,24.7798c-6.9131.9492-11.8643,6.0771-18.6035,4.956-3.3965-.5639-3.4981-2.5136-4.4697-4.456-0.7461-1.4927-1.9366-1.3028-3.4864-1.9097-1.4424-.5649-2.2773-1.7383-5.1621-1.061-2.5283.5928-2.8076,4.518-5.9521,4.2929-1.6895-.121-1.8116-2.497-4.2442-5.539-6.3017-7.5708-12.1582-6.523-16.247.4751Z"/><polygon class="cls-1" points="46.56 70.915 50.58 64.415 54.584 70.915 50.58 77.43 46.56 70.915"/><path class="cls-3" d="M23.2793,32.2651a2.81015,2.81015,0,0,1,.8056,2.1158c-0.0586.5791-.9355,1.5502-0.2695,1.8461q1.12065-1.4172,2.2422-2.8339c-0.6025-.1509-5.3652-5.8482-5.4424-6.4722q-1.57905.86715-3.1592,1.7339c0.1641,0.6611,1.294.0054,1.8545,0.0464a2.91854,2.91854,0,0,1,1.9532,1.1518c-1.7286,1.4488-5.9317,5.0171-6.3741,5.0899-0.2265.0361-1.0888-.6011-1.1015-0.0557a4.89605,4.89605,0,0,0,1.0146,1.21q1.1148,1.3257,2.2295,2.6528c0.6191-.2822-0.1103-0.7319.2051-1.2432,0.2314-.374,4.9014-4.2666,6.042-5.2417h0Z"/><path class="cls-3" d="M18.0058,25.2852c0.4434-.0953.6241,0.4335,0.958-0.0562q-1.2231-1.45965-2.4482-2.917c-0.3711-.4419-0.8408-0.916-0.706.0181,0.0888,0.6299-6.1133,5.664-6.4932,5.8198-0.4795.1973-.7578-0.417-1.1094,0.0972q1.09725,1.30365,2.1934,2.6079c0.2461,0.292.4765,0.6118,0.747,0.8818,0.3389,0.3394.2081-.6719,0.2237-0.5849a1.65525,1.65525,0,0,1,.8554-1.2281A60.49977,60.49977,0,0,1,18.0058,25.2852Z"/><path class="cls-3" d="M9.2353,24.3682a3.21533,3.21533,0,0,1-4.207-2.042c-0.543-1.835.6143-3.7574,2.0713-4.8013,1.4385-1.0317,3.5889-.9697,4.373.8379a3.611,3.611,0,0,1-.0947,2.5024c-0.1601.5059-.5967,1,0.0567,1.2886q1.289-1.64355,2.581-3.2856c-1.0557-.6333-1.5185-1.6831-2.3008-2.5953a5.8647,5.8647,0,0,0-3.4814-2.2836c-2.8701-.4063-5.5742,2.5556-5.7949,5.2446a5.75287,5.75287,0,0,0,1.2461,4.001c0.75,0.9941,1.8671,1.623,2.4345,2.7544a22.51913,22.51913,0,0,0,3.2862-1.2554,1.55343,1.55343,0,0,0-.17-0.3657h0Z"/><path class="cls-3" d="M48.5351,60.7769c-1.1504-.7676-4.0254-4.6895-4.5732-5.3409-0.1074-.1299-0.2188-0.2607-0.3291-0.3916a2.3017,2.3017,0,0,0-.2461.1905c-0.1729.1455,0.1348,0.5732-.0518,0.8642-0.7929,1.2403-5.7578,4.9824-6.0156,5.1631-0.5556.3838-1.164-.1592-1.4892,0.3154a45.0243,45.0243,0,0,0,3.0195,3.5821c0.4785,0.0781.1475-.8145,0.2109-1a31.54813,31.54813,0,0,1,3.5489-3.211c0.3359-.2812.6875,0.4258,0.8877,0.7227a1.75893,1.75893,0,0,1,.2978,1.5683c-0.1162.3702-.7168,0.92-0.25,1.1739,0.6191-.7227,2.3613-2.7539,2.6133-3.0489,0.2519-.2929-0.5664-0.0371-0.4688-0.0869a0.91475,0.91475,0,0,1-1.0634-.0283,4.98348,4.98348,0,0,1-.9903-1.166,4.62763,4.62763,0,0,1,1.5176-1.0996c0.8623-.2129,1.582,1.5156,1.709,2.1289a3.45315,3.45315,0,0,1-.0762,1.75c-0.124.3867-.4873,0.6963,0.0176,0.9297q1.06935-1.46055,2.1318-2.9199a0.7001,0.7001,0,0,1-.4004-0.0957C48.4082,60.6919,48.6738,60.8472,48.5351,60.7769Z"/><path class="cls-3" d="M38.3115,56.646a5.478,5.478,0,1,0-7.793-1.0664,5.41552,5.41552,0,0,0,7.793,1.0664C39.4668,55.6714,38.2119,56.7163,38.3115,56.646Zm-0.4648-4.7529a7.44745,7.44745,0,0,1-3.7325,3.667c-1.8183.7148-3.0996-.8272-2.3603-2.5528a7.45455,7.45455,0,0,1,3.7373-3.666c1.8516-.7353,3.0664.8457,2.3555,2.5518C37.4648,52.7827,37.917,51.7241,37.8467,51.8931Z"/><path class="cls-3" d="M31.8672,42.0371c0.4746,0.0601.9258,0.5498,1.2685,0.042q-1.1118-1.31835-2.2275-2.6372c-0.5947.269,0.0469,0.5493-.1944,0.9712-0.2441.4267-2.5595,0.7807-3.1757,0.8901a15.89791,15.89791,0,0,1,1.1572-2.8354c0.5439-.4449.8828,0.4321,1.2832-0.1407q-1.3725-1.62585-2.7432-3.2529c-0.3105-.3662-0.5595-1.0283-0.9804-0.6802a8.41122,8.41122,0,0,1-.0889,1.733c-0.0859.2358-.9355,3.6381-1.9258,4.4702a21.51092,21.51092,0,0,1-2.7021,2.0966c-0.541.189-.8252-0.5976-1.2198-0.0376q1.24515,1.47885,2.4913,2.9566a4.30174,4.30174,0,0,0,.7666.8931c0.5214,0.0942.0595-.8931,0.1132-1.086,0.1504-.4306,2.5-2.7187,3.4971-2.8589a19.3726,19.3726,0,0,1,4.6807-.5239C32.206,42.0791,31.5156,41.9941,31.8672,42.0371Z"/><path class="cls-4" d="M25.6074,22.874c-4.043-.167-2.3516-3.9541.3945-4.8081,2.6114-.813,8.0889,1.7173,9.8428,3.398-2.7822.8549-6.3857,0.7319-9.4463,0.874-0.2265-3.1201-.958-2.0318-0.791.5361h0Z"/><path class="cls-4" d="M26.6221,27.7241c-2.0401-1.5791-1.3956-5.2661,1.7626-4.146,4.0059,2.084-.8554,3.2388-1.7626,4.146h0Z"/><path class="cls-4" d="M35.1103,35.4228c-8.6201-.0708-2.792-13.3217.1407-12.5209,3.373,1.0732,2.9951,12.622-.1407,12.5209h0Z"/><path class="cls-4" d="M41.2158,31.0937c-0.8398,2.5015-2.3603,2.9683-2.1914-.0698,0.1934-3.5029,2.4785-2.6621,4.9297-4.0039,2.04-1.1191,3.1387-5.2139,6.6406-2.7651,1.5625,1.0932,3.3525.1792,3.8516,1.833-0.0254-.084-4.545,10.3081-2.0313,10.3081-4.9609,0-2.7724-5.9219-.874-9.8989-1.8467.8847-4.8418,6.688-2.3818,7.643-1.2813,1.6861-5.1944,3.9449-7.2344,2.2979-1.5518-1.249-.6914-3.3252-0.709-5.3443h0Z"/><path class="cls-4" d="M45.3203,40.6968c-3.4893,1.0464-8.1221-1.2066-2.5098-2.3399,3.4825-.7041,7.1866.7779,2.5098,2.3399C45.4609,40.6548,45.1924,40.7402,45.3203,40.6968Z"/><path class="cls-4" d="M49.6904,40.5561c-0.7363-1.6582.5615-3.6352,2.6797-2.1992,1.8467,1.252-.8506,3.106-2.6797,2.1992h0Z"/><path class="cls-4" d="M46.7441,45.2241c-2.4111-.7471-10.5371-0.561-5.2178-2.7641,1.6397-.6788,10.1543.0981,5.2178,2.7641h0Z"/><path class="cls-4" d="M49.959,44.8711c-0.0069-.96-0.5118-2.6792,1.3545-1.9463,2.2343,0.8794-1.3545,2.6514-1.3545,1.9463h0Z"/><path class="cls-4" d="M57.1777,48.5381c-1.4365-1.2271-2.8906-1.2949-4.2285,0-1.7949-3.293-8.3184-2.19-11.3662-2.6509,1.6387,4.0283,14.8642,4.7803,15.5947,2.6509h0Z"/><path class="cls-4" d="M55.2754,50.9624c-3.1514-.1465-6.6709-0.5635-9.6465.084,1.8603,0.4658,6.3965,1.7949,2.1719,2.918,1.5156,2.1679,3.9736,2.0292,5.5839.1269a15.44446,15.44446,0,0,1-1.5517-1.0566c1.6719-.3037,3.2344-1.2676,3.4424-2.0723h0Z"/><path class="cls-4" d="M58.8711,47.085c-5.2881-3.1119-3.9502-5.4268.3545-7.586,2.2539-1.1308,7.3232-5.208,9.4463-3.8501q-4.9014,5.718-9.8008,11.4361h0Z"/><path class="cls-5" d="M55.1064,39.8091c-4.4795-4.6011,6.6885-4.1782,8.4864-5.7959,1.3115,0.437,10.7685-8.2832,13.0712-7.7412-1.6552,1.9409-5.2197,8.1362-7.7744,8.1362-1.9648,0-3.9502-.292-5.4726,1.1069-2.2237,2.0479-5.9082,3.0899-8.3106,4.294h0Z"/><path class="cls-6" d="M56.5732,34.1831c-2.4531,1.3189-4.7724-3.9072-.5371-3.3979,2.8135,0.3378,5.6621-.2374,8.3477.2255a8.66324,8.66324,0,0,1-7.8106,3.1724h0Z"/><path class="cls-3" d="M69.2051,52.4663a4.96587,4.96587,0,0,1,.2148,2.0088c-0.1064.873-.9785,2.9248-2.1728,2.3398a18.22511,18.22511,0,0,1-3.1875-2.5517c0.8017-.9356,1.5068-1.749,2.8535-1.2949,0.3701,0.123.6884-.0362,0.2988-0.2618-0.4043-.2343-3.1133-1.9648-3.2607-1.7988-0.2706.3106,0.5283,0.8672,0.2207,1.4727a7,7,0,0,1-.9317,1.2187c-0.7197-.6074-1.9228-1.2529-1.0566-2.2558a3.6859,3.6859,0,0,1,2.0976-1.3418c0.5655-.1143,1.8409.3886,2.0059-0.2246q-1.63035-.78225-3.2578-1.565c0.1767,0.7993-3.3487,4.5249-4.1309,5.4634a3.14137,3.14137,0,0,0-.664.7978c-0.0088.4288,0.622,0.0967,0.6572,0.084,0.4853-.1806,6.8154,5.1084,6.9726,5.4707a2.0407,2.0407,0,0,0-.0293.7315,0.84723,0.84723,0,0,0,.253.1845c0.3916-.4677,4.5224-5.9755,5.374-6.2168-0.7939-1.2148-1.5879-2.4306-2.3682-3.6513C68.5039,51.3335,69.0752,52.0239,69.2051,52.4663Z"/><path class="cls-3" d="M63.0439,59.1694c-2.0771-1.3398-5.5957,1.2793-6.125,1.5313a0.9962,0.9962,0,0,1-1.2509-1.502,2.7733,2.7733,0,0,1,2.3105-1.289,4.68523,4.68523,0,0,0,1.459.0254c0.1299-.2022.2275-0.2207,0.042-0.3457q-1.28475-.8673-2.5674-1.7334c-0.1758,1.0556-1.3848,1.7275-2.0762,2.4404a4.70459,4.70459,0,0,0-1.5195,3.1562,3.029,3.029,0,0,0,1.6767,2.6602,3.30908,3.30908,0,0,0,3.3243-.5108,19.18152,19.18152,0,0,1,1.9238-1.1709c0.9961-.4667,2.3037-0.0625,1.9531,1.2696a3.59584,3.59584,0,0,1-2.4053,2.3398,3.28876,3.28876,0,0,1-1.872-.0898c-0.4317-.1416-0.9932-0.7344-1.2295-0.1113q1.74165,1.2699,3.4814,2.5371a2.33376,2.33376,0,0,1,1.086-1.5635,11.68126,11.68126,0,0,0,1.9941-2.1299C64.4082,62.9897,64.7871,60.6206,63.0439,59.1694Z"/><path class="cls-3" d="M63.0439,59.1694c0.9248,0.5977-.5908-0.4941,0,0h0Z"/><path class="cls-3" d="M92.2773,21.855h0Z"/><path class="cls-3" d="M99.7353,19.645c-0.7295.729-8.4199-2.3408-8.9824-2.7641-0.29-.1158-0.2998-1.3208-0.7051-0.8331q-0.60495.73245-1.2158,1.4629-0.627.7581-1.2558,1.5132c-0.2598.314-.5372,0.458-0.0381,0.7202,0.8369-.4189,5.417,7.3457,5.0078,8.461-0.7246.376-6.9151-5.0572-7.0811-5.4151-0.0517-.146.2735-1.021-0.2109-0.9448a4.23985,4.23985,0,0,0-.8887,1.0718c-0.2969.3569-.5918,0.7148-0.8887,1.0723,0.3321,0.4848.5166-.0215,0.959,0.0419a13.14668,13.14668,0,0,1,2.2403,1.6636c-0.7246.0274-2.6846,0.1314-2.9336,0.1133-0.9034.1118-.4219-0.6631-1.0147-0.9311q-1.13955,1.3827-2.2773,2.7641-0.6621.80355-1.3262,1.6069c-0.0537.065-.0469,0.0318,0.0498,0.1119,0.3301,0.2729.1045,0.1679,0.5684,0.0063,0.5058-.1772,6.5586,4.9307,6.7763,5.1899,0.377,0.4498-.1543.9751,0.4112,1.2208q0.89939-1.09215,1.7978-2.1841c0.0908-.1099.1406-0.0996,0.0205-0.1978-0.4267-.353-0.4756.2119-1.0019,0.1538-0.5332-.0888-4.3946-3.3686-5.8946-4.6098,1.8213-.0679,7.2911-0.271,8.1983-0.3042a1.84813,1.84813,0,0,1,1.0683,1.2163c-0.081.3779-.4628,0.5581,0.0538,0.7939,0.4794-.5752.9853-1.1489,1.456-1.7339h0l0.2276-.2822a0.74331,0.74331,0,0,0,.2099-0.2646l0.168-.2115c0.4248-.4848,1.7998-2.0058,1.6347-2.1499-0.4609-.3999-0.6845.4658-1.2978-0.0537a12.902,12.902,0,0,1-1.4434-2.1621c-0.2636-.4492.6084-0.897,0.9639-1.1191,0.7764-.482,3.2471-1.1831,3.4824.3481a1.25561,1.25561,0,0,0-.084.7041c0.044,0.0366.2041,0.2417,0.2696,0.1626,0.1631-.1968,2.3613-2.8428,3.3008-3.9687A1.4709,1.4709,0,0,0,99.7353,19.645Zm-7.374,2.1558c0.0772-.0488.1533-0.0977,0,0-0.0508.0322-.0742,0.0473-0.084,0.0542,0.0137-.0078.0469-0.0298,0.0821-0.0518a5.71309,5.71309,0,0,0-.9581.7608q-0.7821-1.3455-1.5644-2.6929,1.76655,0.736,3.5244,1.4809A3.73389,3.73389,0,0,0,92.3613,21.8008Z"/><path class="cls-3" d="M82.6162,33.0122a5.48239,5.48239,0,1,0,.5908,7.6006A5.37749,5.37749,0,0,0,82.6162,33.0122ZM82.3349,39.626l-0.0253.0268c-1.2325,1.292-3.3584.0962-4.5059-.7309-1.1455-.8291-3.1104-2.5699-1.8555-4.104,1.0557-1.2867,3.124-.231,4.1914.4819,1.1992,0.8032,3.4112,2.5962,2.2754,4.2163C82.4892,39.4258,82.541,39.3682,82.3349,39.626Z"/><path class="cls-3" d="M82.6162,33.0122c1.1709,0.959-.2529-0.2114,0,0h0Z"/><path class="cls-3" d="M82.3076,39.6528l0.0254-.0268a1.31564,1.31564,0,0,0,.0801-0.1099A1.63769,1.63769,0,0,0,82.3076,39.6528Z"/><path class="cls-3" d="M76.0244,42.1357c0.1113,0.0943.2725,0.2242-.0635-0.0566-2.8349-2.127-6.1933-1.5039-8.4013,1.1567q-1.48245,1.7835-2.961,3.5674c0.3506,0.5117.7627-.1181,1.2725,0.1758,0.4365,0.25,6.2441,5.1006,6.3388,5.3662,0.1641,0.458-.2548.5479,0.1446,0.875a41.39373,41.39373,0,0,0,4.9345-6.1914A4.34144,4.34144,0,0,0,76.0244,42.1357ZM74.706,48.8901a4.78511,4.78511,0,0,1-.665.6504c-0.3057.293-6.4375-4.6753-6.1914-4.9443a4.34831,4.34831,0,0,1,3.5762-1.2974C73.6162,43.8589,76.6396,46.5591,74.706,48.8901Z"/></g></svg>