<svg id="Layer_1" data-name="Layer 1" xmlns="http://www.w3.org/2000/svg" viewBox="0 0 186.64259 96.4258"><defs><style>.cls-1{fill:#81b3d3;}.cls-2{fill:#23a9e1;}.cls-3{fill:#fff;}.cls-4{fill:#491213;}.cls-5{fill:#dc6243;}.cls-6{fill:#f49774;}.cls-7{fill:#f4b1a4;}</style></defs><title>logo</title><g id="Layer_2" data-name="Layer 2"><path class="cls-1" d="M186.64259,0H0L80.4863,90.4741a16.81536,16.81536,0,0,0,25.67,0Z"/><polygon class="cls-2" points="43.242 0.721 92.765 59.071 142.089 1.074 43.242 0.721"/><path class="cls-3" d="M122.0225,17.332q-7.5924.04185-15.1866,0.084c6.001-6.9311,8.6973-6.1899,15.1866-.084h0Z"/><path class="cls-3" d="M80.8486,22.6899h26.6797c-1.9853-1.2329-6.708-7.059-9.3076-4.893-0.2119.1782-7.5049-8.8477-12.2959-4.4991-4.1787,3.7994-6.1201-.498-10.8574,2.5113-5.3984,3.5698,3.1201,5.6748,5.7812,6.8808h0Z"/><path class="cls-4" d="M93.1035,0.0161H42.1836V22.479L92.7647,84.0015l0.3388-.4239,50.7481-60.3935V0.0161H93.1035ZM54.8994,1.793h5.4619V18.9839l-5.4619-6.4888V1.793Zm-0.7832,9.77L49.1455,5.6592V1.793h4.9707v9.77ZM73.4199,8.855L67.6807,1.793h5.7392V8.855Zm-6.6416,3.8281L61.1797,1.793h5.5986V12.6831ZM61.1455,3.4399L66.669,14.1841a58.15986,58.15986,0,0,0-5.5235,4.854V3.4399Zm6.416-.5507L73.169,9.7891c-1.1172.6469-2.1573,1.2998-3.0997,1.9321-0.8906.5976-1.7246,1.1958-2.5078,1.7827V2.8892Zm6.6426-.1973L78.9688,6.915a48.55928,48.55928,0,0,0-4.7647,2.293V2.6919ZM79.7774,6.585L74.3711,1.793h5.959V6.376C80.1455,6.4458,79.96,6.5142,79.7774,6.585ZM98.8965,1.793h4.9902L98.8965,4.2319V1.793Zm-5.791,0h4.4394L93.1055,3.8481V1.793ZM92.167,3.7559L87.9258,1.793H92.167V3.7559Zm-5.4912.5263L81.584,1.793h5.0918V4.2822ZM81.1123,2.4351L85.835,4.7432a38.68233,38.68233,0,0,0-4.7227,1.3466V2.4351ZM87.459,2.4399l3.4648,1.604a32.00574,32.00574,0,0,0-3.4648.3902V2.4399ZM97.8828,2.5V4.4399a33.14719,33.14719,0,0,0-3.3564-.3881Zm6.4746-.0649V6.1357A39.99631,39.99631,0,0,0,99.582,4.77Zm0.7842-.6421h5.9443l-5.4345,4.8178c-0.168-.0649-0.3408-0.125-0.5108-0.188V1.793h0.001Zm13.5498,0h5.5987l-5.5987,10.8759V1.793Zm-6.6406,0h5.7393l-5.7393,7.0078V1.793Zm-0.7832.8872V9.2119a50.83365,50.83365,0,0,0-4.8057-2.272Zm6.6416,0.2036V13.3882c-0.7129-.5142-1.4629-1.0362-2.2559-1.5581-1.0234-.6753-2.1562-1.374-3.3808-2.065Zm6.416,0.5522V18.6768a63.20151,63.20151,0,0,0-5.4785-4.5997Zm0.7822,16.0039V1.793h5.4629V13.1982l-5.3926,6.3125C125.1592,19.4912,125.1358,19.4668,125.1074,19.4399ZM131.3545,1.793h4.9697V6.4609l-4.9697,5.8179V1.793Zm-82.9922,0V4.729L45.8916,1.793h2.4707ZM61.249,20.0371l0.1407,0.1299a56.79529,56.79529,0,0,1,9.2148-7.648C75.791,9.04,83.8399,4.9038,92.7608,4.9531c8.9003,0.043,17.0634,4.1929,22.3457,7.667a60.15733,60.15733,0,0,1,9.4462,7.625l-3.875,4.5361c-6.9121.9488-11.8632,6.0767-18.6035,4.9556-3.3955-.564-3.498-2.5137-4.4687-4.4556-0.7461-1.4931-1.9365-1.3032-3.4873-1.9101-1.4424-.565-2.2774-1.7383-5.1621-1.061-2.5284.5927-2.8067,4.518-5.9522,4.2929-1.6894-.1211-1.8105-2.497-4.2441-5.539-6.3018-7.5708-12.1582-6.523-16.2471.4751L92.7637,57.477ZM137.1074,5.543V1.793h3.2032Z"/><polygon class="cls-2" points="88.745 70.915 92.765 64.415 96.769 70.915 92.765 77.43 88.745 70.915"/><path class="cls-3" d="M65.4639,32.2651a2.81015,2.81015,0,0,1,.8056,2.1158C66.2109,34.96,65.334,35.9311,66,36.227q1.12065-1.4172,2.2422-2.8339c-0.6016-.1509-5.3652-5.8482-5.4424-6.4722q-1.579.86715-3.1592,1.7339c0.1641,0.6611,1.294.0054,1.8545,0.0464a2.91854,2.91854,0,0,1,1.9532,1.1518c-1.7276,1.4488-5.9307,5.0171-6.3741,5.0899-0.2256.0361-1.0879-.6011-1.1006-0.0557a4.877,4.877,0,0,0,1.0147,1.21q1.1148,1.3257,2.2285,2.6528c0.6191-.2822-0.1103-0.7319.2051-1.2432,0.2314-.374,4.9014-4.2666,6.042-5.2417h0Z"/><path class="cls-3" d="M60.1904,25.2852c0.4434-.0953.6241,0.4335,0.958-0.0562q-1.2246-1.45965-2.4492-2.917c-0.3711-.4419-0.8398-0.916-0.706.0181,0.0888,0.6299-6.1133,5.664-6.4932,5.8198-0.4785.1973-.7578-0.417-1.1094,0.0972q1.09725,1.30365,2.1934,2.6079c0.2461,0.292.4766,0.6118,0.7471,0.8818,0.3388,0.3394.208-.6719,0.2236-0.5849a1.65512,1.65512,0,0,1,.8555-1.2281A60.59908,60.59908,0,0,1,60.1904,25.2852Z"/><path class="cls-3" d="M51.4199,24.3682a3.21565,3.21565,0,0,1-4.207-2.042c-0.543-1.835.6143-3.7574,2.0713-4.8013,1.4394-1.0317,3.5889-.9697,4.373.8379a3.61146,3.61146,0,0,1-.0937,2.5024c-0.1602.5059-.5967,1,0.0557,1.2886q1.29045-1.64355,2.581-3.2856c-1.0547-.6333-1.5176-1.6831-2.2998-2.5953a5.867,5.867,0,0,0-3.4824-2.2836c-2.8701-.4063-5.5742,2.5556-5.7949,5.2446a5.75773,5.75773,0,0,0,1.2461,4.001c0.75,0.9941,1.8681,1.623,2.4345,2.7544a22.51913,22.51913,0,0,0,3.2862-1.2554,1.55343,1.55343,0,0,0-.17-0.3657h0Z"/><path class="cls-3" d="M90.7197,60.7769c-1.1504-.7676-4.0254-4.6895-4.5732-5.3409-0.1084-.1299-0.2188-0.2607-0.3291-0.3916a2.20578,2.20578,0,0,0-.2461.1914c-0.1729.1446,0.1338,0.5733-.0518,0.8643-0.7929,1.2412-5.7578,4.9834-6.0156,5.1631-0.5556.3838-1.164-.1592-1.4892,0.3164a45.4337,45.4337,0,0,0,3.0185,3.582c0.4795,0.0781.1485-.8154,0.211-1a31.54641,31.54641,0,0,1,3.5488-3.2109c0.3359-.2813.6875,0.4258,0.8877,0.7226a1.7621,1.7621,0,0,1,.2978,1.5684c-0.1162.3701-.7168,0.9199-0.25,1.1738,0.6192-.7226,2.3614-2.7539,2.6133-3.0488,0.252-.293-0.5664-0.0371-0.4687-0.0869a0.91364,0.91364,0,0,1-1.0635-.0283,5.004,5.004,0,0,1-.9903-1.1661,4.61236,4.61236,0,0,1,1.5166-1.0996c0.8624-.2129,1.5821,1.5157,1.709,2.1289a3.45415,3.45415,0,0,1-.0761,1.75c-0.1241.3868-.4873,0.6963,0.0175,0.9297q1.068-1.4604,2.1309-2.9199a0.713,0.713,0,0,1-.3975-0.0976C90.5928,60.6919,90.8584,60.8472,90.7197,60.7769Z"/><path class="cls-3" d="M80.4961,56.646a5.478,5.478,0,1,0-7.793-1.0664,5.41552,5.41552,0,0,0,7.793,1.0664C81.6514,55.6714,80.3965,56.7163,80.4961,56.646Zm-0.4648-4.7529a7.44745,7.44745,0,0,1-3.7325,3.667c-1.8183.7148-3.0996-.8272-2.3603-2.5528a7.45455,7.45455,0,0,1,3.7373-3.666c1.8516-.7353,3.0664.8457,2.3555,2.5518C79.6494,52.7827,80.1016,51.7241,80.0313,51.8931Z"/><path class="cls-3" d="M74.0518,42.0371c0.4746,0.0601.9258,0.5498,1.2685,0.042q-1.1133-1.31835-2.2275-2.6372c-0.5947.269,0.0469,0.5493-.1944,0.9712-0.2441.4267-2.5595,0.7807-3.1757,0.8901a15.82357,15.82357,0,0,1,1.1572-2.8354c0.5439-.4449.8828,0.4321,1.2832-0.1407q-1.3725-1.62585-2.7432-3.2529c-0.3095-.3662-0.5586-1.0283-0.9804-0.6802a8.41122,8.41122,0,0,1-.0889,1.733c-0.0859.2358-.9355,3.6381-1.9258,4.4702a21.51092,21.51092,0,0,1-2.7021,2.0966c-0.541.189-.8252-0.5976-1.2198-0.0376q1.24515,1.47885,2.4913,2.9566a4.30174,4.30174,0,0,0,.7666.8931c0.5214,0.0942.0595-.8931,0.1132-1.086,0.1514-.4306,2.5-2.7187,3.4971-2.8589a19.3726,19.3726,0,0,1,4.6807-.5239C74.3906,42.0791,73.7002,41.9941,74.0518,42.0371Z"/><path class="cls-5" d="M67.792,22.874c-4.043-.167-2.3506-3.9541.3945-4.8081,2.6114-.813,8.0889,1.7173,9.8428,3.398-2.7832.8549-6.3857,0.7319-9.4473,0.874-0.2255-3.1201-.957-2.0318-0.79.5361h0Z"/><path class="cls-5" d="M77.2949,35.4228c-8.6201-.0708-2.792-13.3217.1407-12.5209,3.373,1.0732,2.9951,12.622-.1407,12.5209h0Z"/><path class="cls-5" d="M83.4004,31.0937c-0.8398,2.5015-2.3613,2.9683-2.1924-.0698,0.1944-3.5029,2.4785-2.6621,4.9297-4.0039,2.04-1.1191,3.1387-5.2139,6.6406-2.7651,1.5616,1.0932,3.3516.1792,3.8506,1.833-0.0254-.084-4.5449,10.3081-2.0312,10.3081-4.961,0-2.7735-5.9219-.8741-9.8989-1.8466.8847-4.8418,6.688-2.3818,7.643-1.2812,1.6861-5.1943,3.9449-7.2344,2.2979-1.5498-1.249-.6894-3.3252-0.707-5.3443h0Z"/><path class="cls-5" d="M87.5049,40.6968c-3.4893,1.0464-8.1221-1.2066-2.5098-2.3399,3.4825-.7041,7.1866.7779,2.5098,2.3399C87.6455,40.6548,87.377,40.7402,87.5049,40.6968Z"/><path class="cls-5" d="M91.875,40.5561c-0.7363-1.6582.5615-3.6352,2.6797-2.1992,1.8467,1.252-.8506,3.106-2.6797,2.1992h0Z"/><path class="cls-5" d="M88.9287,45.2241c-2.4111-.7471-10.5371-0.561-5.2178-2.7641,1.6397-.6788,10.1543.0981,5.2178,2.7641h0Z"/><path class="cls-5" d="M99.3623,48.5381c-1.4365-1.2271-2.8906-1.2949-4.2295,0-1.7949-3.293-8.3183-2.19-11.3662-2.6509,1.6397,4.0283,14.8652,4.7803,15.5957,2.6509h0Z"/><path class="cls-5" d="M97.46,50.9624c-3.1514-.1465-6.6709-0.5635-9.6465.084,1.8603,0.4658,6.3955,1.7949,2.1719,2.918,1.5146,2.1679,3.9726,2.0292,5.5839.1269a15.33087,15.33087,0,0,1-1.5517-1.0566c1.6719-.3037,3.2344-1.2676,3.4424-2.0723h0Z"/><path class="cls-5" d="M101.0557,47.085c-5.2881-3.1119-3.9502-5.4268.3535-7.586,2.2539-1.1308,7.3242-5.208,9.4473-3.8501q-4.9014,5.718-9.8008,11.4361h0Z"/><path class="cls-6" d="M97.291,39.8091c-4.4795-4.6011,6.6895-4.1782,8.4873-5.7959,1.3106,0.437,10.7676-8.2832,13.0713-7.7412-1.6553,1.9409-5.2197,8.1362-7.7754,8.1362-1.9638,0-3.9502-.292-5.4716,1.1069-2.2247,2.0479-5.9092,3.0899-8.3116,4.294h0Z"/><path class="cls-7" d="M98.7578,34.1831c-2.4531,1.3189-4.7724-3.9072-.5371-3.3979,2.8135,0.3378,5.6621-.2374,8.3477.2255a8.66324,8.66324,0,0,1-7.8106,3.1724h0Z"/><path class="cls-3" d="M111.3897,52.4663a4.96587,4.96587,0,0,1,.2148,2.0088c-0.1074.873-.9785,2.9248-2.1728,2.3398a18.22512,18.22512,0,0,1-3.1875-2.5517c0.8017-.9356,1.5068-1.749,2.8535-1.2949,0.3701,0.123.6884-.0362,0.2988-0.2618-0.4053-.2343-3.1143-1.9648-3.2607-1.7988-0.2706.3106,0.5283,0.8682,0.2207,1.4727a7.04959,7.04959,0,0,1-.9317,1.2187c-0.7197-.6074-1.9228-1.2529-1.0566-2.2558a3.6859,3.6859,0,0,1,2.0976-1.3418c0.5655-.1143,1.8409.3886,2.0059-0.2237q-1.63035-.7836-3.2578-1.5649c0.1767,0.7993-3.3487,4.5249-4.1309,5.4643a3.13765,3.13765,0,0,0-.664.7969c-0.0088.4287,0.622,0.0967,0.6572,0.084,0.4863-.1797,6.8164,5.1094,6.9726,5.4707a2.04527,2.04527,0,0,0-.0293.7324,0.83264,0.83264,0,0,0,.253.1836c0.3906-.4678,4.5224-5.9746,5.374-6.2168-0.7939-1.2148-1.5879-2.4297-2.3682-3.6523C110.6885,51.3335,111.2598,52.0239,111.3897,52.4663Z"/><path class="cls-3" d="M105.2285,59.1694c-2.0771-1.3398-5.5957,1.2793-6.125,1.5313a0.99614,0.99614,0,0,1-1.2509-1.502,2.77158,2.77158,0,0,1,2.3095-1.289,4.65517,4.65517,0,0,0,1.459.0263c0.1299-.2021.2275-0.2197,0.042-0.3447q-1.2846-.86865-2.5674-1.7344c-0.1758,1.0547-1.3848,1.7266-2.0762,2.4414A4.69837,4.69837,0,0,0,95.5,61.4546a3.02977,3.02977,0,0,0,1.6768,2.6601,3.30887,3.30887,0,0,0,3.3242-.5107,19.18151,19.18151,0,0,1,1.9238-1.1709c0.9961-.4668,2.3037-0.0625,1.9531,1.2695a3.59588,3.59588,0,0,1-2.4052,2.3399,3.28912,3.28912,0,0,1-1.8721-.0899c-0.4316-.1416-0.9932-0.7343-1.2305-0.1113q1.7418,1.26855,3.4825,2.5371a2.33432,2.33432,0,0,1,1.0859-1.5644,11.681,11.681,0,0,0,1.9941-2.1299C106.5928,62.9897,106.9717,60.6206,105.2285,59.1694Z"/><path class="cls-3" d="M105.2285,59.1694c0.9248,0.5977-.5908-0.4941,0,0h0Z"/><path class="cls-3" d="M134.4619,21.855h0Z"/><path class="cls-3" d="M141.9199,19.645c-0.7295.729-8.4199-2.3408-8.9824-2.7641-0.29-.1158-0.2998-1.3208-0.7051-0.8331q-0.60645.73245-1.2158,1.4629-0.627.7581-1.2558,1.5132c-0.2598.314-.5372,0.458-0.0381,0.7202,0.8369-.4189,5.417,7.3457,5.0078,8.461-0.7246.376-6.9151-5.0572-7.0811-5.4151-0.0517-.146.2735-1.021-0.2109-0.9448a4.23985,4.23985,0,0,0-.8887,1.0718c-0.2969.3569-.5918,0.7148-0.8887,1.0723,0.3321,0.4848.5166-.0215,0.959,0.0419a13.18694,13.18694,0,0,1,2.2412,1.6636c-0.7246.0274-2.6845,0.1314-2.9336,0.1133-0.9033.1118-.4218-0.6631-1.0146-0.9311q-1.13819,1.3827-2.2773,2.7641-0.66224.80355-1.3262,1.6069c-0.0537.065-.0469,0.0318,0.0498,0.1119,0.3301,0.2729.1045,0.1679,0.5683,0.0063,0.5059-.1772,6.5586,4.9307,6.7764,5.1899,0.377,0.4498-.1543.9751,0.4111,1.2208q0.89955-1.09215,1.7979-2.1841c0.0908-.1099.1406-0.0996,0.0205-0.1978-0.4268-.353-0.4756.2119-1.0019,0.1538-0.5333-.0888-4.3946-3.3686-5.8946-4.6098,1.8223-.0679,7.291-0.271,8.1992-0.3042a1.85331,1.85331,0,0,1,1.0684,1.2163c-0.0811.3779-.4629,0.5581,0.0537,0.7939,0.4795-.5752.9854-1.1489,1.4561-1.7339h0l0.2265-.2822a0.74343,0.74343,0,0,0,.21-0.2646l0.168-.2115c0.4248-.4848,1.7998-2.0058,1.6347-2.1499-0.4609-.3999-0.6845.4658-1.2978-0.0537a12.902,12.902,0,0,1-1.4434-2.1621c-0.2637-.4492.6084-0.897,0.9639-1.1191,0.7763-.482,3.247-1.1831,3.4824.3481a1.26372,1.26372,0,0,0-.084.7041c0.044,0.0366.2041,0.2417,0.2695,0.1626,0.1631-.1968,2.3614-2.8428,3.2999-3.9687A1.4709,1.4709,0,0,0,141.9199,19.645Zm-7.374,2.1558c0.0772-.0488.1533-0.0977,0,0-0.0508.0322-.0742,0.0473-0.084,0.0542,0.0137-.0078.0469-0.0298,0.0821-0.0518a5.71309,5.71309,0,0,0-.9581.7608q-0.7821-1.3455-1.5644-2.6929,1.76521,0.736,3.5244,1.4809A3.73389,3.73389,0,0,0,134.5459,21.8008Z"/><path class="cls-3" d="M124.8008,33.0122a5.482,5.482,0,1,0,.5918,7.6006A5.37749,5.37749,0,0,0,124.8008,33.0122Zm-0.2813,6.6138a0.22316,0.22316,0,0,1-.0263.0268c-1.2324,1.292-3.3584.0962-4.5049-.7309-1.1465-.8291-3.1113-2.5699-1.8565-4.104,1.0557-1.2867,3.1241-.231,4.1915.4819,1.2001,0.8032,3.4121,2.5962,2.2763,4.2163C124.6738,39.4258,124.7256,39.3682,124.5195,39.626Z"/><path class="cls-3" d="M124.8008,33.0122c1.1709,0.959-.2529-0.2114,0,0h0Z"/><path class="cls-3" d="M124.4922,39.6528c0.0088-.0097.0176-0.018,0.0264-0.0268,0.0293-.0371.0556-0.0728,0.08-0.1099A1.53774,1.53774,0,0,0,124.4922,39.6528Z"/><path class="cls-3" d="M118.209,42.1357c0.1123,0.0943.2734,0.2242-.0635-0.0566-2.8349-2.127-6.1943-1.5039-8.4023,1.1567q-1.48245,1.7835-2.961,3.5674c0.3506,0.5117.7627-.1181,1.2735,0.1758,0.4355,0.25,6.2441,5.1006,6.3388,5.3662,0.1641,0.458-.2548.5479,0.1436,0.875a41.39358,41.39358,0,0,0,4.9346-6.1914A4.33967,4.33967,0,0,0,118.209,42.1357Zm-1.3184,6.7544a4.78511,4.78511,0,0,1-.665.6504c-0.3057.293-6.4375-4.6753-6.1924-4.9443a4.35029,4.35029,0,0,1,3.5772-1.2974C115.8008,43.8589,118.8242,46.5591,116.8906,48.8901Z"/></g></svg>