<svg id="Layer_1" data-name="Layer 1" xmlns="http://www.w3.org/2000/svg" viewBox="0 0 63.002 75.08324"><title>gift</title><path d="M60.165,22.23H35.7578C49.3613,15.415,50.4453,11.1152,49.9453,8.71c-1.1445-3.916-5.6035-6.938-9.8476-5.3409-5.4844,2.063-7.0293,10.2618-8.5137,16.19C29.6899,13.561,27.8579,5.9102,23.5732,2.0342A7.18542,7.18542,0,0,0,17.897.0313c-3.9649.3515-9.6519,5.3169-7.3438,10.8486,2.2168,5.313,9.5386,8.6699,14.354,11.3501H2.834A2.84265,2.84265,0,0,0,0,25.0649V36.25a2.842,2.842,0,0,0,2.835,2.834h0.27V75.083H60.0625V39.084H60.167a2.84112,2.84112,0,0,0,2.835-2.834V25.0649A2.8462,2.8462,0,0,0,60.165,22.23ZM41.7656,5.8731c2.0703-.3062,4.9073,1.2832,5.1758,3.1709,0.3867,2.7231-3.3486,5.1918-5.0078,6.3432-2.4834,1.7227-4.8525,2.6109-7.1777,4.0059C35.6279,15.7481,37.2676,6.5391,41.7656,5.8731ZM19.2319,15.7212c-2.1899-1.4673-6.4438-4.3784-6.3418-7.6782C13,4.4912,18.5449,1.5518,21.5698,4.2041c3.7974,3.3311,5.625,10.9717,7.0103,16.3569A68.29493,68.29493,0,0,1,19.2319,15.7212Zm5.8824,56.4263H6.042V39.084H25.1143V72.1475Zm0-36.0635H3V25.23H25.1143V36.084ZM35.1152,72.1455H28.0518V25.23h7.0634V72.1455Zm22.0098,0.002H38.0527V39.084H57.125V72.1475ZM60,36.084H38.0527V25.23H60V36.084Z" transform="translate(0 0.00024)"/></svg>