<svg id="Layer_1" data-name="Layer 1" xmlns="http://www.w3.org/2000/svg" viewBox="0 0 26.9453 34.0898"><title>htmlacademy</title><path d="M13.6201,0.0171L13.4727,0,0,1.4121V26.0732l13.4737,8.0166,13.4296-7.9902,0.042-.0244V1.4121ZM25.0196,12.1269L13.4951,5.334,13.4942,5.23l-0.087.0498-0.0878-.0557V5.333L1.9248,12.1181V3.147L13.4737,1.935,25.0205,3.147v8.9799H25.0196ZM13.4053,6.7871L24.9229,13.5l-4.4785,2.6401-7.0928-4.2212L13.3369,13.334l5.9043,3.5131-0.8603.5069-5.0293-2.9922-0.0147,1.415,3.8272,2.2749-0.7822.5235-3.0303-1.7871-0.0147,1.413,1.8536,1.0909-1.7999,1.081L2.0342,13.622ZM1.9248,15.1269l11.4112,6.791,0.0166,1.044L5.4102,18.2344l-0.0147,1.416,7.9785,4.7949,0.0186,1.0762L5.419,20.7812,5.4063,22.1953l8.0205,4.8223,0.0469,0.0244,8.1425-4.8721-0.0107-5.1768,3.415-2.0361V24.9785L13.4727,31.8496,1.9248,24.9785V15.1269Z"/></svg>