<svg id="Layer_1" data-name="Layer 1" xmlns="http://www.w3.org/2000/svg" viewBox="0 0 22 20"><defs><style>.cls-1{fill:#fff;}</style></defs><title>like</title><g id="Page-1"><g id="Core"><g id="thumb-up"><path class="cls-1" d="M12.3828,3.646L11.7461,6.5752,11.2188,9h8.6816v2c0,0.0176,0,.0371.001,0.0576L17,18H8V8.0288l0.0142-.0146L12.3828,3.646M2,10v0M13.2002,0L6.6001,6.6001A1.67781,1.67781,0,0,0,6,8V18a2.00607,2.00607,0,0,0,2,2h9a1.97505,1.97505,0,0,0,1.7998-1.2002l3-7.0996A1.69337,1.69337,0,0,0,21.9004,11V9H22a2.00608,2.00608,0,0,0-2-2H13.7002l1-4.6001V2.1001A2.09567,2.09567,0,0,0,14.2998,1L13.2002,0h0ZM4,8H0V20H4V8H4ZM22,9V9h0Z"/></g></g></g></svg>