<svg id="Layer_1" data-name="Layer 1" xmlns="http://www.w3.org/2000/svg" viewBox="0 0 17.5 14.66191"><title>twitter</title><g id="W6EeEF"><path d="M11.2832,0.1528a3.289,3.289,0,0,1,3.6846,1.1504C15.6621,1.0781,16.3398.833,17.04,0.6127a2.25851,2.25851,0,0,1-.8828,1.7281A1.64011,1.64011,0,0,0,17.5,1.8598a2.89538,2.89538,0,0,1-1.6113,1.9771c-0.2383,6.5923-3.2715,10.9555-10.3819,10.8227H5.0469C4.625,14.6596.7568,14.2104,0,12.8169a6.57429,6.57429,0,0,0,4.835-1.1495c-0.9888-.2929-2.7608-0.4648-3.0699-2.8808a2.13575,2.13575,0,0,0,1.2281.1162C1.7568,8.0669.3848,7.3662,0.4609,5.2177a2.03462,2.03462,0,0,0,1.3809.4615C1.1172,5.4438-.188,2.3979.9209,0.8427,2.7939,2.6547,4.769,4.3642,8.29,4.5278,8.5059,2.288,9.4609.788,11.2832,0.1528Z" transform="translate(0 -0.00063)"/></g></svg>